<?xml version="1.0" encoding="utf-8"?>
<!-- Generator: Adobe Illustrator 17.0.2, SVG Export Plug-In . SVG Version: 6.00 Build 0)  -->
<!DOCTYPE svg PUBLIC "-//W3C//DTD SVG 1.1//EN" "http://www.w3.org/Graphics/SVG/1.1/DTD/svg11.dtd">
<svg version="1.1" id="Layer_1" xmlns="http://www.w3.org/2000/svg" xmlns:xlink="http://www.w3.org/1999/xlink" x="0px" y="0px"
	 width="520px" height="190px" viewBox="0 0 520 190" enable-background="new 0 0 520 190" xml:space="preserve">
<path fill="#00447C" d="M52.102,35.418c-0.238-0.079-0.481-0.148-0.729-0.205c-0.248-0.057-0.501-0.102-0.76-0.135
	c-1.035-0.13-2.148-0.047-3.365,0.317c-2.323,0.732-5.278,2.574-6.298,5.644c-0.942,2.962,0.017,3.965,1.484,5.764
	c0.002,0.001,0.892-0.108,1.092-0.32c-0.124-0.315-2.097-1.989-1.877-3.127c0.287-1.133,3.169-3.712,6.471-4.748
	c1.747-0.522,4.257,0.882,6.392,1.92c2.237,1.057,5.116,3.102,5.086,3.101c0.552-0.978,1.128-1.967,1.743-2.97
	c0.163,0.018-5.918-3.693-7.875-4.652C53.032,35.775,52.578,35.576,52.102,35.418z M57.717,49.203
	c-0.508-0.625-0.927-1.584-0.93-1.585c0,0-0.417,0.729-0.866,1.685c-0.438,0.945-0.269,2.364-0.269,2.364
	c0.561-0.313,1.118-0.632,1.674-0.954C56.858,49.83,57.715,49.203,57.717,49.203z M50.451,43.716
	c-0.028,0.255-0.185,0.858-0.604,1.242c-0.442,0.405-1.436,0.23-1.436,0.23l-0.031,0.369c1.978-0.116,1.943,1.666,1.946,1.757
	l0.568,0.002c0.095-1.859,1.538-1.487,1.538-1.487l-0.008-0.474c-1.644-0.164-1.456-1.564-1.456-1.564L50.451,43.716z
	 M41.327,31.484l0.524,0.648c0,0,1.257-1.137,2.668-0.611c1.41,0.525,1.665,0.911-0.049,1.632c-0.362,0.152-1.118,0.032-1.118,0.032
	l-0.331,0.882c0,0,2.81,0.777,4.016-1.819C47.037,32.248,45.151,29.331,41.327,31.484z M62.909,28.966
	c-0.437-0.762-0.704-1.87-0.706-1.872c0,0-0.689,0.699-1.447,1.639c-0.743,0.93-0.844,2.49-0.844,2.49
	c0.721-0.236,1.443-0.477,2.166-0.719C61.742,29.471,62.904,28.965,62.909,28.966z M54.865,20.71
	c-0.027,0.141-0.387,2.798-3.326,1.603l-0.001,0.552c0,0,1.505,0.261,2.084,1.053c0.536,0.728,0.638,1.592,0.626,1.93l0.748,0.149
	c0,0,0.05-1.926,2.525-1.311l0.162-0.637c0,0-2.263-0.237-1.921-3.015L54.865,20.71z M57.557,37.839
	c0.532,0.255,1.054,0.507,1.567,0.758c-0.006,0.001,0.857-0.647,1.56-0.268c0.699,0.381,1.49,0.815,1.29,1.579
	c-0.231,0.771-2.041,3.573-2.239,3.91c-0.227,0.346-0.752,1.048-1.477,1.725c0.005,0.001,0.577,1.142,0.849,1.442
	c-0.024,0.012,2.091-3.381,2.758-4.043c0.56-0.636,3.019-2.743,1.53-4.755c-0.788-0.998-1.491-1.386-1.998-1.515
	c-0.512-0.128-0.841,0.005-1.009,0.053C60.02,36.83,57.531,37.844,57.557,37.839z M58.91,78.039
	c0.469-1.084,1.413,0.328,1.515,0.598c0.013,0.034,0.526-0.775,0.526-0.775c-0.275-0.428-0.591-0.899-2.196-1.291
	c-1.072-0.262-4.31,1.017-1.49,2.203C58.492,79.289,58.341,79.357,58.91,78.039z M63.416,35.58
	c-0.727,0.162-1.203-0.751-1.207-0.753c-0.434,0.127-0.87,0.255-1.31,0.38c-0.001-0.001,0.213,0.533,0.667,1.012
	c0.227,0.241,0.513,0.464,0.863,0.6c0.087,0.034,0.179,0.063,0.275,0.085c0.096,0.022,0.196,0.038,0.301,0.046
	c0.209,0.016,0.436,0.002,0.684-0.05c2.023-0.428,2.112-2.284,2.273-3.387c0.216-1.078-0.842-4.752-1.44-6.71
	c-0.455-1.671-0.583-3.506,0.519-4.47c-0.7-0.593-1.448-1.204-2.251-1.835c-1.698,3.063,0.154,7.535,0.874,9.321
	c0.858,1.825,0.768,3.906,0.76,4.356C64.412,34.626,64.155,35.419,63.416,35.58z M53.915,79.03
	c-0.255,0.131-2.194,1.469-2.194,1.469l1.383,0.656c0,0,0.638-0.782,1.269-0.439c0.633,0.345,1.379,0.737,1.36,1.571
	c-0.02,0.828-1.152,4.072-1.308,4.482c-0.155,0.407-0.536,1.246-1.144,2.097c0,0,0.786,1.192,1.135,1.489
	c0,0,1.414-4.025,1.851-4.792c0.441-0.776,2.005-3.229,0.307-5.219C54.876,78.354,54.171,78.898,53.915,79.03z M55.024,66.363
	c0.01,0.002,0.715,0.968,1.008,1.214c0.059-0.002,1.78-2.967,2.116-3.532c0.426-0.584,1.823-2.405,0.141-4.093
	c-0.86-0.834-1.5-1.167-1.913-1.269c-0.419-0.103-0.639,0.019-0.759,0.065c-0.209,0.092-1.668,0.931-1.692,0.93
	c0.442,0.278,0.885,0.553,1.321,0.826c0.002,0,0.312-0.687,0.96-0.374c0.662,0.317,1.404,0.672,1.421,1.33
	c0.067,0.655-1.068,3.093-1.291,3.395C56.16,65.155,55.733,65.766,55.024,66.363z M61.295,52.808
	c-0.085-0.959-1.827-4.118-2.701-5.795c-0.718-1.438-1.157-3.025-0.509-4.022c-0.651-0.4-1.323-0.801-2.016-1.207
	c-0.792,2.783,1.437,6.567,2.444,8.078c1.088,1.528,1.483,3.385,1.574,3.776c0.089,0.397,0.042,1.127-0.592,1.383
	c-0.627,0.256-1.232-0.469-1.233-0.471c-0.359,0.175-0.722,0.349-1.088,0.52c0,0,0.279,0.437,0.78,0.783
	c0.501,0.349,1.218,0.596,2.089,0.253C61.827,55.404,61.408,53.806,61.295,52.808z M61.327,67.495
	c0.007-0.067,0.013-0.133,0.018-0.197c0.005-0.064,0.008-0.127,0.01-0.189c0.017-0.493-0.023-0.911-0.136-1.369
	c-0.017-0.864-1.915-2.489-2.052-2.515c-0.39,0.515-1.546,2.497-1.577,2.498c0.455,0.31,1.518,1.354,1.455,1.841
	c0.027,0.493-1.722,2.066-1.77,2.065c0.372,0.37,1.186,2.468,1.159,2.464c0.029,0.005,1.935-1.725,2.507-3.166
	c0.172-0.376,0.263-0.708,0.321-1.007C61.292,67.77,61.312,67.629,61.327,67.495z M41.873,33.642l0.301-0.821
	c-1.512-1.093-1.997-2.795-1.997-2.795l-0.664,0.639C40.089,32.611,41.873,33.642,41.873,33.642z M38.675,78.84
	c0,0,1.441,0.804,2.353-0.873c0.782-1.438,0.586-2.198,0.586-2.198l-0.522,0.151c0,0,0.044,1.751-1.029,2.165
	c-0.616,0.237-0.897-0.032-0.897-0.032L38.675,78.84z M37.182,74.893l0.331,0.629c0,0,1.154-1.838,1.96-1.8
	c0.689,0.032,1.312,1.112,1.312,1.112l0.514-0.169c0,0-0.551-1.595-1.574-1.641C38.819,72.984,38.094,73.717,37.182,74.893z
	 M40.442,77.346l0.297-0.714c-1.325-1.014-1.706-2.531-1.706-2.531l-0.618,0.542C38.871,76.377,40.442,77.346,40.442,77.346z
	 M42.794,77.001c-0.331,0.122-1.007-0.009-1.007-0.009l-0.327,0.767c0,0,2.503,0.779,3.671-1.47c0,0-1.603-2.635-5.112-0.864
	l0.451,0.589c0,0,1.168-0.96,2.42-0.45C44.143,76.074,44.359,76.422,42.794,77.001z M45.645,23.202
	c-0.129-0.379-2.595-2.635-2.303-3.881c0.369-1.192,4.244-3.778,9.07-4.487c2.541-0.328,5.983,2.066,8.611,3.816
	c2.851,1.839,5.756,4.753,5.693,4.726c0.973-0.939,2.003-1.885,3.136-2.821c0.44,0.197-6.358-5.946-9.378-7.922
	c-0.596-0.429-1.237-0.825-1.92-1.165c-0.341-0.17-0.694-0.326-1.056-0.466c-0.362-0.14-0.734-0.263-1.116-0.367
	c-0.191-0.052-0.384-0.1-0.58-0.142c-0.098-0.021-0.196-0.041-0.295-0.06c-0.099-0.019-0.198-0.036-0.298-0.052
	c-0.4-0.064-0.808-0.107-1.225-0.128c-0.834-0.041-1.703,0.008-2.604,0.155c-3.48,0.614-7.632,2.742-8.934,6.131
	c-1.231,3.258,0.016,4.479,1.796,6.795C44.243,23.336,45.376,23.399,45.645,23.202z M69.918,17.741
	c0.772,0.665,1.568,1.393,1.005,2.168c-0.641,0.764-3.784,3.377-4.101,3.704c-0.383,0.324-1.227,0.968-2.293,1.547
	c0.008,0.004,0.376,1.346,0.61,1.717c-0.053,0.006,3.459-3.179,4.505-3.719c0.844-0.602,4.563-2.068,3.814-4.672
	c-0.489-1.354-1.259-2.089-1.891-2.425c-0.642-0.343-1.154-0.305-1.404-0.307c-0.565-0.036-4.337,0.412-4.289,0.433
	c0.658,0.473,1.286,0.935,1.883,1.386C67.743,17.568,69.139,17.071,69.918,17.741z M48.309,65.279l-0.511-0.101
	c-0.028,0.254-0.183,0.852-0.597,1.216c-0.436,0.384-1.418,0.159-1.418,0.159l-0.031,0.369c1.953-0.017,1.918,1.77,1.92,1.861
	l0.561,0.031c0.095-1.861,1.906-1.479,1.906-1.479l-0.008-0.476C48.51,66.612,48.309,65.279,48.309,65.279z M67.884,25.007
	c0.371,0.487,1.226,2.102,0.939,2.691c-0.297,0.587-3.049,1.989-3.031,1.993c0.279,0.536,0.69,3.363,0.669,3.352
	c-0.009-0.007,2.694-1.476,4.824-2.67c0.541-0.31,0.964-0.609,1.29-0.907c0.163-0.149,0.302-0.297,0.42-0.446
	c0.029-0.037,0.058-0.074,0.085-0.112s0.053-0.075,0.077-0.112c0.049-0.075,0.093-0.15,0.133-0.225
	c0.079-0.15,0.141-0.301,0.188-0.454c0.047-0.153,0.079-0.308,0.1-0.465c0.042-0.314,0.039-0.639,0.016-0.98
	c-0.018-1.342-1.815-4.082-1.886-4.111C70.581,22.976,67.849,25.006,67.884,25.007z M61.06,87.671
	c-0.87-1.246-3.639-3.241-3.639-3.241c-0.518,0.692-1.641,3.356-1.641,3.356c0.474,0.356,1.922,1.65,1.994,2.304
	c0.071,0.65-1.594,2.835-1.594,2.835c0.459,0.442,2.245,3.123,2.245,3.123s1.723-2.298,2.842-4.144
	C62.417,90.007,61.929,88.915,61.06,87.671z M39.556,43.816c0,0-0.291-0.422-1.051-1.065c0,0-0.444-0.004-0.856,0.162
	c-0.206,0.083-0.403,0.209-0.526,0.401c-0.062,0.096-0.105,0.208-0.123,0.34c-0.009,0.066-0.011,0.137-0.005,0.213
	c0.005,0.076,0.019,0.157,0.04,0.244c0.324,1.367,1.544,2.692,3.589,4.367c2.148,1.698,5.137,4.3,7.847,5.544
	c1.424,0.636,2.406,1.105,3.173,1.387c0.192,0.07,0.369,0.129,0.537,0.176c0.084,0.023,0.164,0.044,0.243,0.061
	c0.079,0.017,0.155,0.031,0.229,0.042c0.298,0.044,0.565,0.038,0.824-0.021c1.161-0.165,6.331-1.935,6.283-1.972
	c0.099-1.07-1.236-3.232-1.249-3.239c0.001,0.012-3.673,2.277-5.594,2.452c-1.847,0.207-4.043-0.251-6.238-1.656
	c-2.117-1.374-5.28-3.37-6.613-4.645c-1.438-1.41-1.435-1.911-1.421-1.907C38.646,44.7,38.968,43.992,39.556,43.816z M38.284,56.524
	l0.505-0.628c0,0-1.683-2.621-1.544-4.542c0.084-1.161,0.52-0.424,0.802-0.127c0.282,0.297,0.507,1,0.507,1l0.639-0.567
	c0,0-1.204-2.993-1.996-3.709C37.196,47.951,35.273,51.687,38.284,56.524z M43.848,55.75c-0.35,0.137-1.069,0.005-1.069,0.005
	l-0.337,0.836c0,0,2.668,0.807,3.879-1.646c0,0-1.737-2.831-5.44-0.861l0.486,0.631c0,0,1.227-1.058,2.564-0.523
	C45.267,54.726,45.501,55.1,43.848,55.75z M40.277,52.247c0.732,0.025,1.408,1.186,1.408,1.186l0.544-0.191
	c0,0-0.606-1.72-1.694-1.754c-0.962-0.031-1.722,0.775-2.675,2.062l0.36,0.677C38.22,54.226,39.421,52.218,40.277,52.247z
	 M39.971,35.408c0,0,1.632,0.85,2.577-1.087c0.81-1.662,0.561-2.514,0.561-2.514L42.535,32c0,0,0.12,1.981-1.055,2.495
	c-0.674,0.295-0.997,0.001-0.997,0.001L39.971,35.408z M39.497,57.802c0,0,1.541,0.849,2.487-0.98
	c0.812-1.569,0.593-2.39,0.593-2.39l-0.553,0.172c0,0,0.07,1.896-1.064,2.36c-0.651,0.266-0.953-0.022-0.953-0.022L39.497,57.802z
	 M40.915,68.485c-0.005-0.001,1.185,0.018,1.332-0.179c-0.144-0.26-1.932-2.909-1.716-3.881c0.128-0.999,3.286-2.424,6.511-3.432
	c1.671-0.545,2.924,0.222,5.067,1.035c2.249,0.859,4.098,2.676,4.066,2.668c0.413-0.858,0.778-1.716,1.089-2.579
	c0.156,0.043-5.053-2.933-6.457-3.697c-0.339-0.177-0.738-0.334-1.181-0.455c-0.222-0.061-0.454-0.113-0.697-0.155
	c-0.121-0.021-0.245-0.039-0.371-0.055c-0.063-0.008-0.127-0.015-0.191-0.021c-0.064-0.006-0.129-0.012-0.194-0.017
	c-1.04-0.079-2.234,0.037-3.429,0.444c-2.3,0.758-5.12,2.659-5.753,5.407C38.314,66.154,39.79,67.118,40.915,68.485z M41.354,56.158
	l0.306-0.778c-1.42-1.079-1.845-2.717-1.845-2.717l-0.649,0.596C39.673,55.131,41.354,56.158,41.354,56.158z M54.664,69.516
	c-0.547-0.525-0.917-1.712-0.917-1.712s-0.568,0.995-1.032,1.831c-0.434,0.822-0.258,2.055-0.27,2.054
	c0.611-0.286,1.215-0.573,1.805-0.86C53.762,70.074,54.661,69.515,54.664,69.516z M40.901,28.778
	c-1.007-0.008-1.781,0.853-2.747,2.223l0.393,0.699c0,0,1.206-2.13,2.102-2.121c0.766,0.008,1.502,1.205,1.502,1.205l0.564-0.213
	C42.715,30.57,42.039,28.787,40.901,28.778z M30.699,73.301c-0.149,0.082-0.296,0.166-0.44,0.25
	c-0.045,0.376-0.091,0.754-0.14,1.132c-0.001,0.221-0.043,0.225-0.181,0.312c-1.088-1.079-1.433-2.989-0.224-4.328
	c0.269-0.289,0.519-0.73,0.887-0.825c-0.086-0.191-0.171-0.381-0.255-0.571c-1.102,0.115-1.645,1.99-1.904,3.26
	c0.029,0.43,0.058,0.862,0.085,1.295c0.235,1.18,1.216,2.487,1.828,3.194c0.08,0.233,0.156,0.465,0.224,0.696
	c0.387-1.359,0.293-3.068,0.215-4.28C30.763,73.392,30.731,73.346,30.699,73.301z M58.106,112.456
	c-0.885,4.57,3.163,9.922,5.313,11.985c2.151,2.063,3.553,5.029,3.864,5.675c0.311,0.646,0.56,1.94-0.333,2.636
	c-0.893,0.695-2.141-0.318-2.141-0.318l-1.484,1.391c0,0,2.433,2.547,4.998,0.661c2.565-1.885,1.067-4.617,0.461-6.241
	c-0.606-1.624-4.465-6.06-6.158-8.405c-1.462-2.025-2.361-4.374-1.697-6.078L58.106,112.456z M63.358,42.038
	c-0.764,0.589-2.465,2.847-2.446,2.84c0.412,0.371,1.541,1.686,1.45,2.266c-0.104,0.582-2.11,2.282-2.095,2.28
	c0.347,0.449,1.367,2.905,1.355,2.887c-0.004-0.003,2.003-1.747,3.615-3.181c0.409-0.37,0.716-0.71,0.934-1.034
	c0.109-0.162,0.196-0.32,0.264-0.474c0.017-0.039,0.032-0.077,0.047-0.115c0.014-0.038,0.027-0.076,0.039-0.114
	c0.024-0.076,0.043-0.151,0.058-0.226c0.12-0.598-0.041-1.165-0.298-1.779C65.8,44.151,63.386,42.034,63.358,42.038z M31.667,71.112
	c0.012-0.12,0.018-0.244,0.016-0.373c-0.003-0.258-0.034-0.534-0.096-0.827c-0.188-0.849-0.875-1.332-1.207-2.103
	c-0.024-0.006-0.048-0.011-0.072-0.017c-0.108,0.144-0.215,0.289-0.322,0.434c0.368,0.593,0.888,1.088,1.097,1.902
	c0.425,1.68-0.754,2.566-1.88,2.271c-0.022,0.111-0.044,0.222-0.066,0.333c0.014,0.099,0.027,0.199,0.041,0.298
	c0.698,0.263,1.395,0.056,1.895-0.495c0.248-0.276,0.441-0.639,0.54-1.079C31.636,71.346,31.655,71.231,31.667,71.112z
	 M75.692,159.927l1.469-0.995c0,0-3.564-0.84-6.806,1.155c-2.452,1.509-2.7,2.582-2.7,2.582l1.773-0.428
	C69.429,162.242,72.544,158.756,75.692,159.927z M71.201,161.556c0.181-0.054,1.254-0.463,1.254-0.463s-0.152-0.169-0.297-0.853
	l-1.239,0.74C70.919,160.979,70.853,161.297,71.201,161.556z M50.78,167.92c0,0,3.703,0.161,9.16-0.757c0,0,2.521-2.417,3.868-2.925
	c0,0-6.56,1.575-14.555,1.482C49.253,165.72,49.883,167.47,50.78,167.92z M66.076,162.704c0,0,0.966-1.497,2.156-2.262
	c0,0-9.195,1.759-17.763,2.203c0,0-0.93,0.468-1.152,2.048c0,0,6.888,0.081,14.991-1.299L66.076,162.704z M28.467,69.439
	c0.027-0.052,0.053-0.103,0.08-0.155c-0.02-0.023-0.041-0.046-0.061-0.069c-0.208-0.501-1.393,0.442-1.879-0.708
	c0.077-0.36,0.317-0.507,0.534-0.541c0.052-0.147,0.031-0.087,0.051-0.217c0.034-0.145,0.068-0.289,0.101-0.434
	c-0.436,0.117-1.008,0.482-1.208,1.123C26.828,69.629,27.26,70.029,28.467,69.439z M28.158,67.515c-0.04,0.087-0.08,0.174-0.12,0.26
	c-0.008,0.093-0.015,0.185-0.023,0.278c0.532,0.293,0.777,1.164,1.136,1.752c0.113-0.109,0.227-0.218,0.342-0.326
	c0.003-0.037,0.006-0.074,0.009-0.112C29.223,68.64,28.671,67.842,28.158,67.515z M30.733,66.206
	c-0.117-0.103-0.232-0.205-0.345-0.307c-0.431,0.721-0.87,1.448-1.304,2.189c0.092,0.132,0.185,0.265,0.279,0.398
	C29.829,68.064,30.537,67.088,30.733,66.206z M29.806,64.593c-0.045,0.009-0.09,0.018-0.135,0.027
	c-0.034,0.197-0.069,0.394-0.105,0.591c0.232,0.05,0.468,0.102,0.709,0.158c0.797,0.47,1.321,1.75,0.833,2.899
	c0.059,0.09,0.119,0.18,0.179,0.27c0.059,0.109,0.118,0.218,0.178,0.327c0.236-0.367,0.373-0.996,0.29-1.502
	c0.097-0.281-0.016-0.623-0.087-0.865C31.263,65.121,30.697,65.037,29.806,64.593z M27.661,68.783
	c0.309-1.066,0.233-2.112,0.763-2.512c0.188-0.306,0.362-0.403,0.241-0.962c0.003-0.037,0.006-0.073,0.009-0.11
	c-0.781,0.583-1.029,2.005-1.35,3.302C27.419,68.708,27.363,68.745,27.661,68.783z M29.363,67.13
	c0.077-0.115,0.155-0.23,0.232-0.344c0.008-0.402-0.212-0.72-0.257-1.176c-0.129-1.333,0.552-2.097,1.201-2.524
	c0.13,0.065,0.097,0.018,0.161,0.148c0.151,0.412,0.073,0.873,0.034,1.236c0.134,0.144,0.272,0.289,0.413,0.436
	c0.405-0.524,0.396-2.902,0.304-4.083c-0.636,0.87-1.965,1.671-2.389,3.169c-0.055,0.452-0.111,0.905-0.168,1.359
	c0.066,0.422,0.134,0.847,0.203,1.272C29.183,66.792,29.272,66.961,29.363,67.13z M37.871,138.624l2.257,1.92
	c0,0,2.119,2.274,4.225,4.163c2.106,1.89,1.943,2.185,4.841,3.963c2.899,1.777,5.342,2.309,9.773,2.246
	c3.445-0.05,5.678-0.91,5.678-0.91s-6.219,0.097-9.931-0.914c-4.715-1.284-8.16-4.759-9.95-6.598
	C42.628,140.299,41.897,137.846,37.871,138.624z M27.71,70.21c-0.075-0.013-0.15-0.027-0.225-0.04
	c-0.004,0.056-0.009,0.112-0.013,0.169c0.251,0.57,0.499,1.21,0.739,1.801c0.011,0.002,0.022,0.004,0.033,0.006
	c0.041-0.223,0.082-0.445,0.123-0.667C28.101,71.174,27.984,70.257,27.71,70.21z M39.151,99.411
	c-1.193-0.032-2.179,0.994-3.46,2.676l0.455,0.859c0,0,1.602-2.609,2.672-2.589c0.896,0.017,1.69,1.428,1.69,1.428l0.648-0.254
	C41.155,101.532,40.464,99.446,39.151,99.411z M53.893,90.457c-1.03-1.505-1.662-3.212-1.177-4.392l-2.019-1.075
	c-0.614,3.181,2.214,7.123,3.718,8.68c1.507,1.56,2.462,3.661,2.672,4.116c0.21,0.455,0.364,1.329-0.283,1.701
	c-0.641,0.368-1.501-0.403-1.501-0.403l-1.046,0.76c0,0,1.654,1.857,3.489,0.899c1.886-0.986,0.865-2.935,0.461-4.076
	C57.8,95.521,55.082,92.195,53.893,90.457z M52.149,91.396c0,0-0.303,0.88-0.584,2.038c-0.277,1.143,0.221,2.74,0.221,2.74
	l1.556-1.359c-0.695-0.933,0.085-1.771,0.085-1.771C52.754,92.413,52.149,91.396,52.149,91.396z M38.378,106.307l-0.67,1.165
	c0,0,1.92,0.906,3.103-1.506c0.982-2.004,0.738-2.995,0.738-2.995l-0.655,0.241c0,0,0.054,2.343-1.328,3.029
	C38.751,106.645,38.378,106.307,38.378,106.307z M40.061,105.191l0.384-0.995c-1.717-1.264-2.212-3.308-2.212-3.308l-0.835,0.774
	C37.997,104.02,40.061,105.191,40.061,105.191z M46.214,88.543c-0.039,0.364-0.253,1.236-0.821,1.822
	c-0.599,0.618-1.918,0.323-1.918,0.323l-0.044,0.527c2.678-0.355,2.601,2.322,2.604,2.45l0.769-0.052
	c0.133-2.65,2.085-2.26,2.085-2.26l-0.009-0.672c-2.225-0.074-1.967-2.081-1.967-2.081L46.214,88.543z M54.343,75.367
	c0.44,0.322,1.141,0.581,2.121,0.301c2.04-0.613,1.643-2.233,1.64-3.11c0.041-0.88-1.463-3.5-2.606-4.943
	c-0.861-1.208-1.104-2.793-0.557-3.653c-0.695-0.357-1.427-0.723-2.176-1.093c-0.647,2.39,1.78,5.953,2.747,7.198
	c1.143,1.293,1.3,2.915,1.35,3.28c0.044,0.358-0.092,1.041-0.788,1.272c-0.586,0.193-1.035-0.262-1.153-0.396
	c-0.361,0.173-0.754,0.358-1.156,0.543C53.856,74.902,54.041,75.146,54.343,75.367z M54.259,86.578l1.066-3.424
	c0,0-5.604-3.381-7.015-4.182c-1.4-0.795-3.014-1.021-5.152,0.131c-2.073,1.117-4.704,3.749-5.478,7.591
	c-0.741,3.681-0.063,4.655,1.166,6.458c0,0,0.711-0.331,0.865-0.626c-0.139-0.347-1.724-1.887-1.53-3.269
	c0.197-1.404,2.501-5.023,5.455-6.674c1.528-0.854,3.602,0.359,5.571,1.222C51.201,84.679,54.259,86.578,54.259,86.578z
	 M38.112,66.072c0,0-0.157-0.312-0.516-0.735c0,0-0.219,0.062-0.419,0.262c-0.101,0.1-0.198,0.235-0.266,0.413
	c-0.034,0.089-0.061,0.189-0.076,0.3c-0.008,0.056-0.013,0.115-0.015,0.176c-0.002,0.062-0.001,0.127,0.004,0.195
	c0.078,1.079,0.536,1.989,1.917,3.178c1.393,1.211,4.326,2.846,6.376,4.294c1.146,0.802,2.276,1.328,3.269,1.62
	c0.496,0.146,0.958,0.234,1.361,0.27c0.1,0.009,0.197,0.015,0.29,0.017c0.093,0.003,0.181,0.002,0.264-0.002
	c0.167-0.008,0.315-0.028,0.44-0.059c0.512-0.117,1.795-0.67,3.025-1.236c-0.043-0.064-0.071-0.111-0.071-0.111
	c0.404-0.156,0.803-0.312,1.194-0.469c0,0,0.013,0.016,0.033,0.038c0.944-0.452,1.654-0.814,1.608-0.82
	c0.265-0.975-0.977-2.813-1.026-2.823c0.064,0.004-3.945,2.012-5.888,2.268c-1.81,0.244-3.841-0.014-5.955-1.122
	c-2.047-1.066-4.561-2.489-5.292-3.386c-0.839-0.997-0.76-1.404-0.769-1.405C37.598,66.934,37.79,66.298,38.112,66.072z
	 M50.953,145.891c0,0,1.214,1.413,4.081,1.985c0,0,6.003-3.597,7.467-4.523c4.556-2.883,7.454-3.778,8.509-4.263
	c0,0-8.663,0.803-11.337,1.264C57.846,140.67,53.369,143.227,50.953,145.891z M60.178,121.436c0,0-0.428,1.337-0.827,3.099
	c-0.399,1.762,0.333,4.104,0.333,4.104l2.235-2.327c-1.007-1.28,0.094-2.644,0.094-2.644
	C61.049,122.841,60.178,121.436,60.178,121.436z M82.299,142.283c-2.547-3.1-9.062-3.557-9.062-3.557
	c-1.698,1.057-4.32,1.948-7.333,3.859c-2.781,1.764-9.394,5.791-9.394,5.791c4.268,1.379,13.066-0.087,13.066-0.087
	s6.756-0.94,9.812-1.987C82.562,145.213,84.736,144.924,82.299,142.283z M64.426,109.554c0,0-7.66-4.162-9.621-5.16
	c-1.961-0.998-4.26-1.227-7.429,0.455c-3.169,1.682-7.436,5.659-9.015,11.469c-1.579,5.811-0.548,7.246,1.322,9.916
	c0,0,1.199-0.654,1.476-1.15c-0.199-0.527-2.664-2.702-2.217-4.894c0.447-2.191,4.385-7.868,8.981-10.508
	c2.298-1.32,5.28,0.213,8.085,1.253s7.053,3.383,7.053,3.383L64.426,109.554z M42.999,104.496c-0.401,0.192-1.233,0.083-1.233,0.083
	l-0.407,1.058c0,0,3.045,0.742,4.372-2.256c0,0-1.873-3.26-6.208-0.754l0.58,0.76c0,0,1.476-1.362,3.006-0.775
	C44.592,103.182,44.846,103.612,42.999,104.496z M49.729,145.335c0,0,3.363-3.545,6.834-4.646c0,0-10.319-0.184-12.647-0.789
	C43.915,139.9,45.894,142.845,49.729,145.335z M56.264,120.747l-0.393-1.349c-4.76,0.864-5.635-3.649-5.635-3.649l-1.67,0.173
	c0.2,0.855,0.423,2.817-0.413,4.351c-0.87,1.596-4.031,1.276-4.031,1.276l0.266,1.848c5.769-2.082,6.689,4.011,6.779,4.247
	l1.548-0.508C51.325,121.87,56.264,120.747,56.264,120.747z M112.736,145.681l7.907-5.294l-1.612-1.156l-7.78,5.267
	C111.251,144.498,112.254,144.883,112.736,145.681z M65.306,73.453c0.024,0.005,0.048,0.01,0.071,0.016
	c0.101-0.152,0.202-0.305,0.302-0.458c-0.379-0.6-0.9-1.092-1.126-1.916c-0.456-1.685,0.657-2.604,1.751-2.342
	c0.017-0.112,0.035-0.223,0.052-0.335c-0.017-0.099-0.033-0.197-0.049-0.296c-0.68-0.241-1.344-0.015-1.809,0.548
	c-0.231,0.283-0.409,0.652-0.493,1.096c-0.021,0.112-0.036,0.228-0.045,0.349c-0.009,0.121-0.011,0.247-0.007,0.377
	c0.009,0.261,0.046,0.54,0.114,0.837C64.273,72.191,64.958,72.667,65.306,73.453z M61.406,107.039c0,0,0.848-1.078,1.697-0.661
	c0.849,0.416,1.846,0.887,1.842,1.992c-0.004,1.105-1.45,5.616-1.655,6.198s-0.712,1.799-1.544,3.073c0,0,1.114,1.603,1.603,1.983
	c0,0,1.834-5.803,2.397-6.894c0.563-1.091,2.521-4.476,0.247-6.971c-2.273-2.494-3.194-1.756-3.531-1.571
	c-0.337,0.184-2.943,2.06-2.943,2.06L61.406,107.039z M65.356,75.443c0.402-0.766,0.811-1.537,1.212-2.315
	c-0.095-0.134-0.191-0.268-0.287-0.402c-0.442,0.448-1.108,1.48-1.274,2.405C65.125,75.236,65.241,75.34,65.356,75.443z
	 M67.935,72.373c-0.26,1.108-0.144,2.194-0.652,2.626c-0.174,0.326-0.342,0.433-0.202,1.017c-0.002,0.039-0.003,0.078-0.005,0.116
	c0.751-0.636,0.938-2.129,1.2-3.48C68.175,72.443,68.228,72.403,67.935,72.373z M84.396,161.19c-3.19,1.153-4.856,1.57-8.023,2.247
	c0,0-0.622,1.148-1.573,2.2c0,0,6.409-1.218,9.693-2.521C84.494,163.115,83.975,161.342,84.396,161.19z M67.497,73.695
	c0.036-0.091,0.072-0.182,0.108-0.273c0.004-0.096,0.008-0.192,0.011-0.288c-0.533-0.287-0.804-1.175-1.175-1.765
	c-0.106,0.115-0.214,0.229-0.322,0.342l-0.005,0.115C66.412,72.563,66.982,73.37,67.497,73.695z M66.327,74.128
	c-0.072,0.122-0.144,0.243-0.217,0.365c0.006,0.42,0.234,0.747,0.294,1.225c0.175,1.406-0.477,2.239-1.111,2.715
	c-0.131-0.066-0.098-0.016-0.165-0.155c-0.163-0.436-0.099-0.93-0.071-1.317c-0.138-0.149-0.278-0.299-0.423-0.451
	c-0.387,0.567-0.315,3.115-0.189,4.396c0.615-0.964,1.921-1.867,2.292-3.484c0.038-0.482,0.077-0.964,0.117-1.446
	c-0.081-0.443-0.163-0.886-0.246-1.329C66.516,74.475,66.422,74.302,66.327,74.128z M83.847,142.338
	c1.997,3.424-1.145,4.193-1.145,4.193c6.634,0.238,7.725-2.769,6.693-4.551c-1.878-3.243-3.807-4.536-6.726-5.423
	c-3.914-1.19-7.325-1.043-9.06,1.067C77.364,137.871,82.386,139.835,83.847,142.338z M106.958,147.275l-4.802,2.155
	c0,0,0.349,0.907,0.367,1.799l6.137-2.788C108.659,148.441,107.56,147.3,106.958,147.275z M79.558,152.585
	c-4.42,2.481-8.232,6.47-8.232,6.47c1.17-0.364,1.999-0.679,1.999-0.679s5.673-5.138,5.996-1.477
	c0.181,2.052-3.089,3.435-9.123,5.399c-7.256,2.362-7.565,3.657-7.565,3.657l1.789-0.433c0.782-0.51,4.274-1.917,6.07-2.364
	c1.793-0.445,6.517-2.162,8.981-3.78c1.915-1.258,8.914-5.116,11.564-7.161c1.268-0.978,7.833-0.969,8.239,3.452
	c0.529,5.756-7.763,9.908-9.952,8.034c-3.411-2.92,3.208-7.563,4.074-6.763c0.437,0.404-1.117,0.657-2.35,2.372
	c-1.241,1.726,0.15,3.257,3.833,1.227c3.187-2.535,2.041-6.714-2.57-5.639c-4.791,1.117-10.989,7.07-4.079,11.246
	c4.426,2.007,17.524-7.757,13.281-15.436C96.3,141.274,83.109,150.592,79.558,152.585z M67.83,70.916
	c0.074,0.011,0.147,0.023,0.221,0.034c0.002-0.057,0.004-0.114,0.006-0.171c-0.267-0.57-0.532-1.208-0.786-1.794
	c-0.011-0.002-0.021-0.004-0.032-0.005c-0.031,0.224-0.063,0.449-0.094,0.673C67.413,69.951,67.562,70.876,67.83,70.916z
	 M102.646,152.237c0,0,0.174,1.122-0.109,2.29c0,0,5.383-2.621,6.79-3.554c0,0,0.088-0.716-0.324-1.827L102.646,152.237z
	 M113.737,148.486c0,0,7.377-4.648,9.605-6.451l-1.974-1.116c0,0-7.47,5.047-8.172,5.362
	C113.196,146.281,113.677,147.879,113.737,148.486z M88.092,138.145c3.723,3.384,3.017,5.457,2.191,6.876
	c0,0,9.696-1.824,12.189-1.902c2.565-0.08,3.24-0.051,3.16-0.137l5.819-4.889c0,0-11.048-0.094-16.365-2.093
	c-11.798-4.436-16.564-11.358-16.918-11.473c0.012,0.042-2.028,2.575-4.34,4.524c0,0,1.055,2.239,1.425,5.845
	C75.255,134.898,82.73,133.273,88.092,138.145z M67.922,118.826c0.122,0.906-2.064,4.258-2.064,4.258
	c0.646,0.574,3.198,4.207,3.198,4.207s2.205-3.603,3.574-6.37c1.368-2.767,0.675-4.201-0.512-5.795
	c-1.187-1.593-4.879-4.026-4.879-4.026c-0.659,0.976-2.081,4.739-2.081,4.739C65.81,116.282,67.801,117.92,67.922,118.826z
	 M225.642,82.575c-0.026-0.214-0.084-0.536-0.175-0.966c-0.092-0.429-0.189-0.95-0.293-1.563c-0.13-0.735-0.247-1.57-0.351-2.505
	c-0.104-0.935-0.156-1.877-0.156-2.828v-0.276c0.011-0.646,0.058-4.489,0.139-8.712c-3.286,0.058-6.804,0.088-10.557,0.088
	l-8.706-0.085c-0.053,4.073-0.08,7.678-0.08,8.464v0.735c0.026,1.073,0.11,2.131,0.254,3.173c0.142,1.042,0.357,2.022,0.644,2.942
	c0.027,0.086,0.075,0.181,0.119,0.276c-0.003-0.011-0.005-0.021-0.008-0.032c0.2,0.266,0.432,0.548,0.723,0.86
	c0.728,0.782,1.625,1.602,2.692,2.46c0.806,0.643,1.684,1.272,2.633,1.885c0.949,0.613,1.905,1.165,2.868,1.655
	c0.988,0.459,1.951,0.844,2.887,1.149c0.937,0.307,1.808,0.459,2.614,0.459h0.39c0.129,0,0.247-0.015,0.351-0.046
	c0.884-0.122,1.697-0.36,2.439-0.713c0.741-0.352,1.398-0.728,1.97-1.126c0.65-0.49,1.19-0.927,1.619-1.31
	c0.054-0.048,0.095-0.078,0.144-0.12c-0.428-0.522-0.814-1.038-1.146-1.544C226.085,84.023,225.746,83.25,225.642,82.575z
	 M37.501,19.32c0.426,1.525,1.41,3.666,3.887,5.951c2.619,2.325,6.232,5.66,9.297,7.555c1.62,0.976,3.07,1.411,3.919,1.856
	c0.212,0.111,0.408,0.206,0.594,0.286c0.093,0.04,0.183,0.076,0.27,0.108c0.088,0.032,0.173,0.06,0.256,0.085
	c0.334,0.097,0.638,0.133,0.941,0.107c1.347-0.043,7.439-1.079,7.392-1.095c0.414-1.157-0.521-3.715-0.546-3.723
	c-0.016-0.001-4.776,1.759-7.043,1.646c-2.204-0.086-4.339-0.201-6.875-2.197c-2.427-1.939-6.259-4.394-7.915-6.061
	c-1.776-1.838-2.193-3.583-2.172-3.579c-0.001,0.001,0.395-0.713,1.141-0.803c-0.002,0.001-0.37-0.525-1.344-1.367
	c0,0-0.561-0.077-1.071,0.038c-0.254,0.057-0.495,0.162-0.643,0.349c-0.074,0.094-0.124,0.208-0.142,0.347
	c-0.005,0.035-0.007,0.071-0.007,0.109c0,0.038,0.002,0.078,0.006,0.119C37.455,19.133,37.472,19.223,37.501,19.32z M254.441,61.948
	l0-0.088c-0.426,0.094-0.863,0.173-1.307,0.24c-0.137,0.038-0.281,0.076-0.415,0.113c0.342-0.041,0.633-0.081,0.861-0.122
	C253.948,62.025,254.23,61.978,254.441,61.948z M254.523,84.127l-0.082-22.118c-0.888,0.239-1.733,0.474-2.514,0.702
	c-0.894,0.261-1.79,0.499-2.682,0.713c-1.309,0.307-2.65,0.575-4.027,0.804c-1.377,0.23-2.926,0.437-4.645,0.621
	c-3.058,0.33-6.189,0.562-9.389,0.701c-0.055,4.145-0.083,7.846-0.083,8.643v0.735c0.026,1.073,0.11,2.131,0.254,3.173
	c0.142,1.042,0.357,2.022,0.644,2.942c0.027,0.086,0.075,0.181,0.119,0.276c-0.003-0.011-0.005-0.021-0.008-0.032
	c0.2,0.266,0.432,0.548,0.723,0.86c0.728,0.782,1.625,1.602,2.692,2.46c0.806,0.643,1.684,1.272,2.633,1.885
	c0.949,0.613,1.905,1.165,2.868,1.655c0.988,0.459,1.951,0.844,2.887,1.149c0.937,0.307,1.808,0.459,2.614,0.459h0.39
	c0.129,0,0.247-0.015,0.351-0.046c0.884-0.122,1.697-0.36,2.438-0.713c0.741-0.352,1.398-0.728,1.97-1.126
	c0.65-0.49,1.19-0.927,1.619-1.31c0.187-0.167,0.371-0.341,0.566-0.499c0.145-0.117,0.309-0.204,0.462-0.31
	c0.041-0.029,0.111-0.067,0.159-0.111c0.022-0.02,0.04-0.04,0.049-0.061c0.033-0.075,0.001-0.235,0-0.317L254.523,84.127z
	 M413.128,78.772l-0.147,0.107l-0.003,0.023c0.052-0.034,0.097-0.061,0.15-0.096V78.772z M361.455,79.309l10.403,0.053l-4.76-10.652
	L361.455,79.309z M64.74,67.765c0.032,0.044,0.064,0.089,0.096,0.133c0.141-0.086,0.279-0.173,0.415-0.261
	c0.032-0.374,0.065-0.747,0.1-1.121c-0.006-0.217,0.035-0.222,0.163-0.312c1.076,1.031,1.476,2.921,0.351,4.304
	c-0.252,0.3-0.481,0.756-0.837,0.863c0.089,0.192,0.178,0.384,0.266,0.575c1.071-0.149,1.534-2.067,1.738-3.349
	c-0.044-0.428-0.087-0.856-0.128-1.284c-0.266-1.155-1.243-2.401-1.846-3.067c-0.083-0.222-0.16-0.444-0.231-0.664
	C64.498,64.906,64.633,66.571,64.74,67.765z M147.507,83.53c-3.895-2.382-8.14-3.812-12.741-4.289
	c-0.364-0.042-0.713-0.085-1.063-0.129c-0.392-0.038-0.789-0.064-1.196-0.064v-0.055c-0.23-0.013-0.462-0.021-0.698-0.021v-0.053
	l-2.412-0.139v26.403c0,0.209,0.025,0.401,0.075,0.58c0.05,0.239,0.101,0.463,0.152,0.67c0.003,0.014,0.009,0.024,0.012,0.037
	l0-0.002c0.24,0.195,0.58,0.329,0.898,0.368c0.481,0.06,0.998,0.089,1.555,0.089h0.456l8.417-0.089h1.213
	c2.932-0.237,5.637-1.429,8.115-3.574c1.538-1.332,2.598-2.849,3.181-4.549c0.211-0.823,0.33-1.682,0.33-2.587v-0.536
	C153.496,89.933,151.399,85.912,147.507,83.53z M149.266,97.532c0,1.765-0.66,3.122-2.137,4.402
	c-1.748,1.513-3.555,2.326-5.522,2.485l-0.115,0.01l-0.104-0.031l-8.153,0.086V85.059c0.336,0.041,0.686,0.083,1.067,0.127
	c3.901,0.404,7.552,1.632,10.85,3.648c1.617,0.99,3.796,2.925,4.115,8.291V97.532z M136.24,73.225c0.38-0.029,0.746-0.045,1.1-0.045
	c2.729-0.237,5.271-1.041,7.621-2.413c1.761-1.025,2.947-2.57,3.559-4.633c0.121-0.519,0.22-1.058,0.275-1.636v-0.224
	c0-0.089,0.025-0.163,0.076-0.223v-0.448c0-3.038-1.163-5.389-3.488-7.058c-2.325-1.668-4.904-2.739-7.735-3.216
	c-0.325-0.034-0.636-0.069-0.952-0.104c-0.525-0.057-1.061-0.088-1.61-0.088l-5.688-0.089v20.009l5.743,0.123
	C135.494,73.24,135.861,73.256,136.24,73.225z M133.234,59.012l1.153,0.018c0.38,0,0.761,0.021,1.127,0.062
	c0.494,0.056,0.998,0.112,1.514,0.166c2.112,0.374,3.985,1.164,5.722,2.409c1.082,0.777,1.549,1.701,1.584,3.159
	c-0.048,0.276-0.073,0.557-0.074,0.84c-0.094,0.822-0.277,1.421-0.506,1.878c-3.508-0.099-7.018-0.209-10.52-0.328V59.012z
	 M68.979,72.626c-0.06,0.373-0.289,0.532-0.5,0.573c-0.045,0.153-0.026,0.091-0.04,0.226c-0.027,0.151-0.054,0.302-0.082,0.453
	c0.424-0.133,0.97-0.528,1.137-1.196c-0.781-1.199-1.219-1.594-2.372-0.959c-0.024,0.054-0.048,0.107-0.072,0.161
	c0.021,0.023,0.042,0.046,0.063,0.069C67.335,72.459,68.454,71.46,68.979,72.626z M519.341,51.17
	c-0.969-7.072-2.398-7.418-2.813-7.355l-0.072,0.011l-0.064,0.044c-1.774,1.212-5.004,2.605-9.592,4.14l-5.91,1.835
	c-6.47,1.88-9.724,2.782-9.756,2.791l-0.095,0.026l-0.074,0.081c-0.106,0.116-2.6,2.851-3.213,3.923l-0.133,0.232l0.086,0.249
	c-8.279,1.038-20.426,2.454-35.191,3.864c0.196-0.214,0.401-0.432,0.623-0.661l9.137-9.422l-12.97,1.708
	c-0.213,0.028-0.437,0.056-0.684,0.085c-0.399,0.047-0.801,0.117-1.196,0.206c-0.983,0.198-1.96,0.473-2.906,0.818
	c-1.179,0.432-2.225,0.992-3.106,1.667l-0.316,0.242l-4.406,4.799l-0.329,0.403c-0.015,0.021-0.03,0.042-0.046,0.062l0.004-1.332
	l2.033-10.747l-6.311,0.937c-1.706,0.254-3.508,0.684-5.353,1.28c-1.883,0.608-3.653,1.363-5.311,2.275
	c-0.68,0.385-1.313,0.806-1.921,1.24c-0.017-0.531-0.125-1.2-0.477-1.906c-1.126-2.514-3.859-3.6-6.435-4.327
	c-2.404-0.678-5.035-1.175-7.821-1.477l-0.095-0.009c-0.732-0.064-1.459-0.121-2.178-0.168c-2.217-0.148-4.296,0.156-6.496,0.254
	c-5.358,0.238-10.256,2.982-13.364,7.463c-0.121,0.156-0.239,0.32-0.356,0.492c-0.171,0.252-0.343,0.527-0.508,0.821
	c-0.739,1.306-1.395,2.891-2.004,4.843c-0.53,1.696-0.892,3.47-1.1,5.279c-0.684,0.022-1.369,0.045-2.055,0.066l-3.458-7.794
	l-8.258-0.071c-1.151,0-2.039,0.075-2.798,0.238c-0.899,0.193-1.752,0.523-2.544,0.99c-0.274,0.162-0.547,0.333-0.814,0.51
	c-0.232,0.154-0.493,0.332-0.779,0.534c-0.236,0.16-0.448,0.311-0.638,0.453c-0.112,0.084-0.219,0.161-0.32,0.234l-0.166,0.125
	c-0.278,0.219-0.544,0.451-0.792,0.689c-0.247,0.237-0.488,0.494-0.721,0.768l-3.271,3.864c-0.566,0.011-1.124,0.021-1.688,0.032
	l0.002-32.257h-18.037l-12.257,9.316V23.691h-18.037l-17.474,13.281l18.472,0.738V67.3c-1.049,0.016-2.099,0.033-3.142,0.049
	c0.051-0.105,0.107-0.207,0.153-0.314c0.331-0.783,0.499-1.601,0.499-2.48l-0.005-0.228c-0.103-2.06-1.245-3.881-3.135-4.997
	c-0.862-0.508-1.804-0.927-2.755-1.228c-0.865-0.285-1.692-0.494-2.457-0.623c-0.246-0.041-0.434-0.073-0.563-0.098l-0.23-0.07
	l-9.294-1.104l-0.539-0.081c-0.529-0.073-1.048-0.13-1.549-0.168c-0.526-0.039-1-0.058-1.448-0.058h-0.371
	c-0.388,0-0.771,0.039-1.147,0.116c-1.157,0.187-2.274,0.729-3.325,1.614c-0.341,0.287-0.7,0.588-1.079,0.901l-0.514,0.097
	l-0.768,0.043h-7.038l-0.087-22.535l-10.072-0.325l-0.828-0.002c-0.709,0-1.419,0.156-2.079,0.455
	c-0.54,0.222-1.033,0.529-1.476,0.925l-0.189,0.11l-8.521,7.637l4.303-9.064l-12.389,6.893c-2.261,1.258-3.296,1.911-3.406,1.982
	l-4.618,3.24l-1.939,1.408c-0.935,1.107-1.63,2.817-2.05,4.301c-0.15,0.528-0.312,1.105-0.477,6.043
	c-1.654-0.014-3.38-0.034-5.18-0.058c-1.938-0.03-3.772-0.054-5.505-0.07l-0.189-0.002c-0.023,0-0.047-0.001-0.07-0.002
	c0.057-2.54,0.123-4.551,0.195-5.221c0.152-0.774,0.289-1.242,0.379-1.503c0.113-0.058,0.221-0.117,0.32-0.177
	c0.257-0.151,0.508-0.322,0.746-0.51l1.456-1.394l7.089-14.933l-12.389,6.893c-2.261,1.258-3.296,1.911-3.406,1.982l-4.618,3.24
	l-1.939,1.408c-0.935,1.107-1.63,2.817-2.05,4.301c-0.117,0.413-0.242,0.859-0.37,3.397c-0.975,0.322-1.823,0.903-2.604,1.521
	c-0.34,0.27-0.986,0.73-2.175,1.415l-0.862,0.507c-0.321,0.19-0.625,0.379-0.914,0.567l-0.208,0.141
	c-0.277,0.163-0.54,0.343-0.787,0.538l-0.712,0.49l-1.847-4.162l-8.258-0.071c-1.151,0-2.039,0.075-2.798,0.238
	c-0.899,0.193-1.752,0.523-2.544,0.99c-0.274,0.162-0.547,0.333-0.814,0.51c-0.232,0.154-0.493,0.332-0.779,0.534
	c-0.236,0.16-0.448,0.311-0.638,0.453c-0.112,0.084-0.219,0.161-0.32,0.234l-0.166,0.125c-0.278,0.219-0.544,0.451-0.792,0.689
	c-0.247,0.237-0.489,0.494-0.721,0.768l-4.562,5.389c-0.276-0.005-0.552-0.01-0.828-0.015c1.156-2.222,1.746-4.759,1.746-7.592
	l-0.007-0.97c-0.281-5.03-2.584-9.178-6.665-11.997c-3.538-2.443-7.442-3.904-11.601-4.346c-0.521-0.065-1.07-0.117-1.645-0.154
	c-0.369-0.023-0.736-0.058-1.092-0.104l-0.332-0.044l-27.06,0.476L90.806,59.288l23.153-0.514l0.052,7.705
	c-16.584-0.706-32.425-1.552-46.152-2.365c-0.379-0.857-0.769-1.707-1.161-2.508c4.432-26.011,30.637-40.723,30.637-40.723
	S75.466-5.964,25.82,1.222c0,0,0.238,0.963,0.627,2.642c-0.106,0.019-0.211,0.034-0.316,0.053c0,0,9.706,40.077,4.562,53.356
	c-1.258,1.587-2.303,2.97-3.185,4.182c-3.556-0.261-5.58-0.418-5.712-0.428c-0.127,0.001-3.114,0.059-4.209,3.258
	c-0.627,1.833-1.355,4.265-1.422,6.815c-0.058,2.199,0.386,4.168,1.319,5.854c0.906,1.637,2.509,1.805,3.834,1.943
	c0.496,0.052,3.033,0.272,6.936,0.589c0.651,1.239,1.1,2.048,1.1,2.048s0.627,3.454,0.589,9.861
	c-1.444,16.163-6.695,47.072-25.372,83.132c-0.245,0.438-0.484,0.874-0.734,1.315c0,0,0.016,0.005,0.04,0.013
	c-1.236,2.353-2.524,4.726-3.878,7.119c0,0,46.665,13.674,86.459,2.869c39.794-10.806,72.865-41.506,85.393-61.433l-9.877-0.057
	c0.082-0.082,0.172-0.172,0.252-0.252l-31.788-0.421l-8.341,5.958c0,0-8.727,0.457-19.386-2.963
	c-13.975-4.891-30.637-16.603-35.397-44.445c8.69,0.5,17.176,0.89,23.987,1.009c5.884,0.103,13.7,0.304,22.825,0.561l0.18,26.689
	v0.089c0,4.304,1.43,6.975,4.251,7.94c1.003,0.344,2.445,0.572,6.219,0.572c0.567,0,1.179-0.005,1.837-0.016h1.555
	c1.539,0,3.117-0.065,4.686-0.193c0.23-0.019,0.465-0.049,0.696-0.071l6.383-0.975c6.497-1.422,12.565-3.965,18.062-7.595
	c4.437-2.932,7.503-6.682,9.112-11.045c0.207-0.256,0.415-0.513,0.607-0.766c0.258-0.339,0.506-0.682,0.745-1.027l8.992-8.793
	l4.591,0.073l5.25,11.631h2.63c0.265,0.039,0.595,0.079,1.012,0.119c0.365,0.033,0.788,0.066,1.273,0.1
	c0.548,0.037,1.098,0.056,1.633,0.056h0.429c0.773,0,1.513-0.042,2.197-0.124c1.079-0.13,1.989-0.4,2.782-0.824l0.161-0.09
	c0.301-0.178,0.697-0.407,1.181-0.685c0.695-0.398,1.411-0.886,2.13-1.45c0.512-0.403,1.011-0.839,1.481-1.294
	c0.049-0.047,0.093-0.101,0.141-0.149c1.513,1.099,3.074,2.043,4.69,2.818c1.08,0.501,2.169,0.905,3.236,1.199
	c1.162,0.32,2.319,0.505,3.441,0.55l0.334,0.003c1.083,0,2.22-0.164,3.377-0.488c1.019-0.285,2.065-0.689,3.108-1.202
	c0.928-0.438,1.852-0.946,2.749-1.511c0.861-0.542,1.675-1.103,2.391-1.644c0.339-0.252,0.659-0.5,0.965-0.745
	c0.355,0.283,0.718,0.564,1.092,0.84c1.592,1.179,3.238,2.179,4.944,2.997c1.08,0.501,2.169,0.905,3.236,1.199
	c1.162,0.32,2.319,0.505,3.441,0.55l0.334,0.003c1.083,0,2.22-0.164,3.377-0.488c1.019-0.285,2.065-0.689,3.108-1.202
	c0.641-0.303,1.277-0.65,1.907-1.015l0.065,9.686l13.858,0.27l2.468,0.001c1.022,0,2.044-0.107,3.037-0.319
	c0.711-0.136,1.432-0.335,2.148-0.595c0.745-0.27,1.521-0.64,2.308-1.099c0.467-0.258,0.929-0.548,1.375-0.863
	c0.362-0.256,0.702-0.503,1.021-0.742l0.123-0.096c0.579-0.466,1.115-0.93,1.594-1.382c0.517-0.488,0.924-0.908,1.244-1.285
	l1.936-2.28c0.359,0.029,0.714,0.049,1.059,0.049l0.674-0.005c0.88-0.04,1.656-0.121,2.373-0.248
	c0.803-0.142,1.609-0.374,2.396-0.691c0.473-0.174,0.943-0.394,1.384-0.643c0.478-0.267,0.955-0.597,1.419-0.979l4.553-3.315
	c0.131-0.086,0.256-0.176,0.376-0.27c0.083-0.064,0.164-0.132,0.244-0.201c0.193-0.152,0.38-0.314,0.558-0.481
	c0.253-0.237,0.491-0.487,0.711-0.746c0.357-0.421,0.657-0.87,0.899-1.342c0.407-0.803,0.614-1.641,0.614-2.492
	c0-0.444-0.066-0.872-0.183-1.278c1.552-0.023,3.106-0.047,4.661-0.072v44.887l16.751-7.364V86.129
	c4.552-0.085,9.075-0.175,13.543-0.268v32.498l16.751-7.363v-6.414c0.22-0.165,0.439-0.331,0.643-0.5
	c0.512-0.422,1.006-0.874,1.423-1.298c0.339-0.333,0.684-0.682,1.044-1.054c0.349-0.363,0.719-0.758,1.154-1.232
	c0.618-0.694,1.193-1.389,1.709-2.069c0.258-0.339,0.506-0.682,0.745-1.027l8.992-8.793l4.591,0.073l5.25,11.631h2.63
	c0.265,0.039,0.595,0.079,1.012,0.119c0.365,0.033,0.788,0.066,1.273,0.1c0.548,0.037,1.098,0.056,1.633,0.056h0.429
	c0.773,0,1.513-0.042,2.197-0.124c1.079-0.13,1.989-0.4,2.782-0.824l0.161-0.09c0.301-0.178,0.697-0.407,1.181-0.685
	c0.695-0.398,1.411-0.886,2.13-1.45c0.512-0.403,1.011-0.839,1.481-1.294c0.553-0.534,1.068-1.129,1.533-1.769l3.349-4.607
	c0.256,0.053,0.502,0.118,0.769,0.16c0.906,0.144,1.826,0.217,2.738,0.217c1.884,0,3.807-0.342,5.716-1.016
	c1.865-0.659,3.76-1.723,5.63-3.162l3.188-2.363c0.315-0.014,0.623-0.027,0.905-0.04c1.784-0.082,3.761-0.18,5.878-0.29l0.021,1.261
	l0.3,15.42l14.096-7.424l-0.056-7.282l2.391,2.806c0.454,0.536,0.896,1.064,1.322,1.579c0.477,0.58,0.96,1.141,1.437,1.67
	c1.111,1.268,2.281,2.362,3.478,3.251c1.628,1.209,3.422,1.906,5.33,2.07l0.893,0.016c0.971,0,1.908-0.139,2.785-0.411
	c0.773-0.241,1.525-0.576,2.237-0.995c0.412-0.243,0.839-0.52,1.271-0.825c0.362-0.256,0.745-0.538,1.104-0.809
	c0.144-0.106,0.299-0.213,0.459-0.318c0.057-0.037,0.123-0.073,0.193-0.107l0.431-0.232c0.609-0.373,1.171-0.694,1.665-0.953
	c3.857-2.016,3.328-5.124,3.074-6.028l-0.079-0.283l-0.114-0.269c-0.499-1.178-1.412-2.085-2.634-2.581
	c-0.563-0.219-1.172-0.33-1.81-0.33c-0.743,0-1.489,0.15-2.359,0.477c-0.28,0.106-0.594,0.224-0.944,0.352
	c-0.2,0.062-0.406,0.128-0.62,0.201l-0.328,0.07c-0.272-0.152-0.557-0.337-0.851-0.551l-0.058-0.042
	c-0.228-0.16-0.45-0.342-0.67-0.546l-1.08-1c-0.011-0.01-0.021-0.02-0.032-0.031c12.568-0.827,25.176-1.744,34.317-2.548
	l1.575,3.216l0.154,0.247l0.228-0.016c5.984-0.436,10.136-0.626,12.335-0.567l6.371,0.232c3.247,0.143,6.858,0.338,7.744,0.386
	l0.021,0.043l0.244-0.03c0.285-0.035,0.531-0.065,2.404-6.834c0.875-3.164,1.403-7.318,1.527-12.015l0-0.001
	C520.083,59.332,519.858,54.946,519.341,51.17z M25.235,68.207c0,0,3.065-4.902,7.105-9.158c0,0,0.35,8.798-0.968,20.674
	C31.372,79.724,26.958,73.785,25.235,68.207z M116.763,133.937l16.666,8.783c0,0-51.974,53.286-122.494,28.81
	c14.955-24.543,20.986-45.335,23.307-101.427c1.6-38.678,0.16-58.588-2.818-64.872c0,0,26.277-0.336,52.82,14.174
	c0,0-22.764,25.799-22.279,55.038C62.377,99.288,78.083,137.761,116.763,133.937z M64.42,83.53c0,0-1.145-4.641-1.113-11.238
	c0.028-5.705,1.676-10.898,1.676-10.898s5.126,10.855,5.167,11.478C68.728,76.614,64.42,83.53,64.42,83.53z M238.243,50.805
	l1.301-2.741h10.305l0.041,11.098c-0.294,0.024-0.611,0.049-0.981,0.075c-1.836,0.146-4.488,0.274-7.884,0.378
	c-1.677,0.052-3.645,0.091-5.881,0.118c0.058-2.598,0.125-4.663,0.198-5.344c0.152-0.774,0.289-1.242,0.379-1.503
	c0.113-0.058,0.221-0.117,0.32-0.177c0.257-0.151,0.508-0.322,0.746-0.51L238.243,50.805z M202.672,90.589
	c-0.24,0.233-0.449,0.449-0.677,0.66c-0.08,0.084-0.156,0.172-0.238,0.252c-0.365,0.353-0.741,0.682-1.131,0.989
	c-0.546,0.429-1.073,0.789-1.581,1.08c-0.507,0.291-0.916,0.529-1.228,0.713c-0.287,0.154-0.683,0.261-1.19,0.322
	s-1.06,0.092-1.658,0.092h-0.429c-0.442,0-0.884-0.016-1.327-0.046c-0.442-0.031-0.833-0.061-1.171-0.092
	c-0.227-0.022-0.417-0.044-0.589-0.067c-0.035-0.003-0.075-0.006-0.109-0.009c-0.312-0.03-0.572-0.061-0.78-0.092
	c-0.208-0.03-0.326-0.046-0.351-0.046l-5.199-11.519l-13.689-0.219l-4.292,8.136c-0.156,0.338-0.319,0.652-0.487,0.942
	c-0.17,0.292-0.345,0.59-0.527,0.897c-0.365,0.582-0.767,1.164-1.209,1.747c-0.303,0.398-0.639,0.807-0.991,1.221
	c-1.178,3.787-3.714,6.97-7.613,9.546c-5.637,3.723-11.843,6.18-18.617,7.371c-1.467,0.239-2.933,0.417-4.399,0.536
	c-1.466,0.12-2.907,0.179-4.322,0.179h-1.592c-2.792,0.046-4.724-0.008-5.819-0.16c-0.669-0.054-1.151-0.13-1.439-0.229
	c-0.784-0.268-1.175-1.474-1.175-3.618v-0.089l-0.076-10.633l-0.303-45.656l-9.978,0.222l-0.001,0.001l-2.904,0.065l10.964-7.451
	l25.405-0.447c0.454,0.06,0.922,0.105,1.402,0.135c0.479,0.031,0.948,0.075,1.402,0.133c3.438,0.357,6.623,1.55,9.556,3.575
	c1.853,1.28,3.275,2.878,4.038,4.802c-0.001-0.001-0.002-0.003-0.003-0.004c0.67,1.331,1.066,2.823,1.159,4.494v0.714
	c0,3.216-0.987,5.838-2.957,7.863c-1.972,2.025-4.273,3.663-6.901,4.913l-3.337,1.52l0.01,0.003l0.996-0.454l1.838,0.452
	c3.74,0.954,7.115,2.637,10.123,5.048c1.286,1.032,2.304,2.238,3.073,3.605c1.348,1.997,2.102,4.378,2.236,7.161v0.022
	c0.075-0.155,0.149-0.309,0.229-0.476l0.758-1.533l1.911-4.205l0.173-0.009l0.008-0.016h-0.688l-0.031,0.01h-2.458l4.473-2.744
	l7.612-15.447l-0.018-0.001c-0.287-0.015-0.572-0.038-0.858-0.069h-1.677c-0.365,0-0.696,0.016-0.995,0.046
	c-0.299,0.031-0.591,0.062-0.878,0.093c-0.205,0-0.417,0.026-0.63,0.054c-0.009,0.009-0.025,0.025-0.03,0.029
	c-0.202,0.021-0.405,0.043-0.6,0.063c-0.121,0-0.247,0.022-0.37,0.032c-0.017,0.002-0.03,0.005-0.047,0.006
	c0,0,0.001-0.001,0.002-0.002c-0.128,0.011-0.253,0.011-0.384,0.033c-0.273,0.046-0.566,0.085-0.878,0.115
	c0.129-0.153,1.014-1.24,1.118-1.363c0.104-0.122,0.208-0.245,0.312-0.368c0.13-0.153,0.266-0.299,0.409-0.437
	c0.143-0.138,0.293-0.267,0.449-0.39c0.129-0.093,0.266-0.191,0.409-0.299c0.142-0.107,0.305-0.222,0.488-0.345
	c0.26-0.184,0.494-0.345,0.702-0.483c0.208-0.138,0.416-0.267,0.624-0.391c0.364-0.214,0.761-0.368,1.19-0.459
	c0.429-0.092,1.047-0.138,1.853-0.138l5.432,0.046l0.356,0.803l0.011,0l2.693,6.068l10.228,23.461h0.035l-0.324-0.744l3.225,0.016
	l1.966-0.016c0.132-0.012,0.567,0.022,1.068-0.088c0.13-0.03,0.437-0.13,0.567-0.176c0.13-0.046,1.513-0.364,1.669-0.426
	C203.374,89.846,203.036,90.237,202.672,90.589z M275.665,98.041c-0.39,0.368-0.833,0.751-1.327,1.149
	c-0.286,0.215-0.592,0.437-0.917,0.667c-0.325,0.23-0.657,0.437-0.995,0.621c-0.572,0.337-1.112,0.598-1.619,0.782
	c-0.508,0.184-1.008,0.322-1.502,0.414c-0.702,0.153-1.418,0.23-2.146,0.23h-2.381l-9.441-0.184l0-0.029l-0.492-0.01l0-0.034
	l-0.205-0.004l-0.093-13.92c-0.111,0.148-0.246,0.312-0.408,0.492c-0.69,0.766-1.632,1.594-2.829,2.482
	c-0.651,0.491-1.352,0.973-2.107,1.448c-0.755,0.475-1.521,0.896-2.302,1.264c-0.806,0.398-1.594,0.706-2.36,0.92
	c-0.768,0.215-1.489,0.322-2.165,0.322h-0.156c-0.404-0.016-0.815-0.061-1.233-0.13c-0.614-0.059-1.239-0.158-1.884-0.337
	c-0.833-0.23-1.677-0.544-2.536-0.942c-1.404-0.673-2.789-1.517-4.155-2.529c-1.315-0.973-2.475-1.976-3.488-3.007
	c-0.113,0.152-0.253,0.322-0.421,0.509c-0.69,0.766-1.632,1.594-2.829,2.482c-0.651,0.491-1.352,0.973-2.107,1.448
	c-0.755,0.475-1.521,0.896-2.302,1.264c-0.806,0.398-1.594,0.706-2.36,0.92c-0.768,0.215-1.489,0.322-2.165,0.322h-0.156
	c-0.404-0.016-0.815-0.061-1.233-0.13c-0.614-0.059-1.239-0.158-1.884-0.337c-0.833-0.23-1.677-0.544-2.536-0.942
	c-1.404-0.673-2.789-1.517-4.155-2.529c-1.366-1.011-2.569-2.053-3.609-3.126c-0.858-0.919-1.575-1.816-2.146-2.689
	c-0.572-0.874-0.911-1.647-1.015-2.321c-0.026-0.214-0.084-0.536-0.175-0.966c-0.092-0.429-0.189-0.95-0.293-1.563
	c-0.13-0.735-0.247-1.57-0.351-2.505c-0.104-0.935-0.156-1.877-0.156-2.828v-0.276c0.011-0.651,0.058-4.553,0.141-8.817
	l-0.732,0.008l-9.598-0.184c0.027-0.018,0.052-0.035,0.078-0.053l-0.652-0.02l-0.125-0.002c0.001-0.001,0.001-0.001,0.001-0.001
	l-0.756-0.024c0.364-0.245,0.702-0.475,1.015-0.69c0.312-0.214,1.627-1.131,1.939-1.345c0.104-0.092,0.221-0.176,0.352-0.253
	c0.129-0.076,0.26-0.16,0.39-0.253c0.234-0.153,0.481-0.306,0.741-0.459c0.26-0.153,0.546-0.322,0.858-0.505
	c1.118-0.644,2.015-1.233,2.692-1.77c0.677-0.536,1.132-0.804,1.366-0.804c0.052,0,0.091,0.008,0.117,0.023
	c0.016,0.01,0.033,0.045,0.049,0.072c0.017-0.008,0.035-0.021,0.05-0.021c0.052,0,0.323,0.736,0.349,0.751
	c0.026,0.016,0.052,0.053,0.078,0.115c0.025,0.092,0,0.207-0.078,0.345c-0.078,0.138-0.182,0.284-0.312,0.437
	c-0.052,0.062-0.111,0.123-0.175,0.184c-0.065,0.062-0.137,0.138-0.215,0.23c-0.027,0.016-0.061,0.048-0.092,0.072
	c0.172,0.02,0.7,0.098,0.707,0.091c0.393,0.037,0.775,0.069,1.136,0.092c0.302,0.02,0.601,0.03,0.901,0.044
	c0.1-4.02,0.232-7.573,0.397-8.155c0.041-0.144,0.101-0.27,0.15-0.407c0.018-0.141,0.036-0.254,0.055-0.32
	c0.39-1.379,1-2.376,2.092-3.112l0.132-0.106l4.448-3.126c0,0,2.085-1.223,4.294-2.452l-0.654,1.426
	c0.01-0.005,0.017-0.01,0.027-0.015l-0.64,1.346l-0.506,0.498c-0.078,0.062-0.156,0.115-0.234,0.16
	c-0.078,0.047-0.156,0.085-0.234,0.115c-0.287,0.154-0.56,0.322-0.82,0.505c-0.26,0.184-0.495,0.445-0.702,0.782
	c-0.442,0.674-0.819,1.824-1.131,3.448c-0.151,0.786-0.266,5.496-0.344,10.364l0.007,0c0.007-0.332,0.014-0.314,0.021-0.727
	c0.481,0.014,1.174,0.031,1.695,0.053c0.839,0.03,1.632,0.052,2.383,0.067c0.081,0.001,0.161,0.002,0.242,0.003
	c1.72,0.016,3.544,0.039,5.471,0.069c2.271,0.031,4.422,0.053,6.452,0.069c1.041,0.008,2.045,0.014,3.022,0.018
	c0.101-4.224,0.238-8.052,0.409-8.658c0.041-0.144,0.102-0.27,0.15-0.408c0.018-0.14,0.036-0.253,0.055-0.319
	c0.39-1.379,1.132-2.436,2.224-3.172v-0.046l4.448-3.126c0,0,2.045-1.106,4.254-2.335l-0.625,1.315
	c0.014-0.008,0.024-0.014,0.038-0.021l-0.64,1.346l-0.506,0.498c-0.078,0.062-0.156,0.115-0.234,0.16
	c-0.078,0.047-0.156,0.085-0.234,0.115c-0.287,0.154-0.56,0.322-0.82,0.505c-0.26,0.184-0.495,0.445-0.702,0.782
	c-0.442,0.674-0.819,1.824-1.131,3.448c-0.151,0.784-0.265,5.473-0.343,10.327c0.014-0.095,0.027-0.196,0.031-0.416
	c3.952-0.019,7.463-0.069,10.113-0.151c3.476-0.107,5.418-0.157,7.349-0.249c1.831-0.088,3.139-0.098,3.837-0.132
	c0.613-0.029,1.39,0.019,1.884,0.055l-0.073-19.55h-3.286l-0.007,0.007h-2.265l3.617-3.293c0.052-0.03,0.104-0.061,0.156-0.092
	c0.052-0.03,0.104-0.076,0.156-0.138c0.078-0.061,0.15-0.122,0.215-0.184c0.065-0.061,0.15-0.107,0.254-0.138
	c0.104-0.061,0.201-0.092,0.292-0.092h0.683l6.219,0.096l0.005,1.382l-0.032,0l0.115,34.647l0.117,23.511l0.001,0l-0.004-0.728
	l6.533,0.456c0.494,0.062,0.936,0.099,1.327,0.115c0.39,0.016,0.767,0.023,1.131,0.023c0.39,0.031,0.787,0.031,1.19,0
	c0.403-0.03,0.872,0.032,1.366-0.029c0.624-0.061,0.901,0.029,1.715-0.146c0.264-0.057,0.547-0.1,0.8-0.181
	c0.101-0.068,0.202-0.136,0.302-0.203c0.182-0.122,0.39-0.26,0.624-0.414l0.041,0.041c0.101-0.075,0.164-0.133,0.343-0.25
	l0.273,0.276c-0.022,0.026-0.041,0.051-0.062,0.077c0.035-0.023,0.066-0.044,0.102-0.067l0.273,0.276
	C276.354,97.367,276.056,97.672,275.665,98.041z M264.392,87.44c0.664,0.897,1.423,1.751,2.284,2.552l4.553,4.401
	c0.252,0.24,0.514,0.463,0.775,0.688c-0.041,0.02-0.082,0.04-0.127,0.059c-0.054,0.011-0.176,0.033-0.39,0.053l-0.119,0.014
	c-0.414,0.051-0.788,0.091-1.132,0.116c-0.166,0.012-0.33,0.013-0.491,0.001l-0.355-0.014c-0.306,0-0.622-0.006-0.957-0.02
	c-0.266-0.01-0.583-0.038-0.942-0.083l-3.068-0.228L264.392,87.44z M296.661,63.272c0,0.215-0.046,0.43-0.136,0.644
	c-0.092,0.215-0.215,0.429-0.371,0.643c-0.104,0.184-0.234,0.368-0.39,0.552l-0.468,0.551c-0.131,0.154-0.253,0.307-0.371,0.459
	c-0.117,0.154-0.228,0.307-0.332,0.46c-0.208,0.337-0.397,0.636-0.566,0.896c-0.17,0.261-0.345,0.529-0.527,0.804
	c0,0.031-0.027,0.077-0.078,0.138c-0.182,0.276-0.365,0.551-0.546,0.828c-0.182,0.276-0.377,0.567-0.585,0.873
	c0.004-0.012,0.007-0.023,0.01-0.034c-0.06,0.089-0.526-0.639-0.474-0.915c0.052-0.276,0.078-0.552,0.078-0.828
	c0-0.398-0.046-0.789-0.137-1.172c-0.091-0.383-0.241-0.774-0.448-1.173c-0.39-0.796-0.924-1.302-1.6-1.517
	c-0.677-0.214-1.392-0.352-2.146-0.414c-0.13-0.03-0.26-0.046-0.39-0.046c-0.131,0-0.26-0.015-0.39-0.046l-7.748-1.059
	c-0.337-0.025-0.674-0.05-0.997-0.084c-0.442-0.046-0.884-0.069-1.327-0.069c-0.494,0-0.963,0.039-1.404,0.115
	c-0.443,0.077-0.885,0.222-1.327,0.436c-0.546,0.276-1.034,1.088-1.464,2.437c-0.429,1.349-0.735,2.804-0.916,4.367
	c-0.052,0.368-0.092,0.736-0.117,1.103c-0.027,0.368-0.039,0.72-0.039,1.058l-0.051,1.48l16.453,0.659
	c0.208,0.031,0.416,0.046,0.624,0.046h1.483c0.286,0,0.911-0.031,1.226-0.031l1.221-0.044c0.436-0.044,0.821-0.101,1.003-0.132
	c0.208-0.061,0.523-0.12,0.717-0.182c0.195-0.061,0.409-0.138,0.644-0.23l0.078,0.499c-0.007,0.005-0.018,0.01-0.025,0.015
	c0.013-0.005,0.024-0.008,0.037-0.013l0.078,0.368c-0.182,0.123-0.429,0.284-0.741,0.483c-0.312,0.2-0.663,0.391-1.053,0.575
	c-0.312,0.184-0.644,0.353-0.995,0.505c-0.351,0.154-0.709,0.292-1.073,0.414c-0.052,0-0.111,0.008-0.175,0.023
	c-0.065,0.016-0.124,0.039-0.176,0.069c-1.405,0.368-2.881,0.613-4.429,0.735c-1.547,0.123-3.245,0.2-5.091,0.23l-8.662,0.092
	c0.097,0.188,0.215,0.391,0.341,0.6l0.023,0c0.117,0.171,0.241,0.346,0.372,0.528c0.533,0.735,1.137,1.502,1.814,2.298
	c0.546,0.614,1.124,1.211,1.736,1.793c0.61,0.582,1.241,1.119,1.892,1.609c0.598,0.429,1.177,0.835,1.736,1.218
	c0.559,0.383,1.125,0.728,1.697,1.034c0.806,0.46,1.62,0.82,2.439,1.08c0.82,0.261,2.07,0.524,2.98,0.524
	c0.364,0,0.741-0.023,1.132-0.069c0.39-0.046,0.793-0.115,1.209-0.207c0.208-0.061,0.435-0.138,0.683-0.23s0.488-0.199,0.722-0.322
	c0.181-0.122,0.371-0.237,0.565-0.345c0.195-0.107,0.384-0.222,0.566-0.345c0.572-0.368,1.066-0.697,1.483-0.988
	c0.416-0.291,0.625-0.375,0.625-0.253c0,0.047-0.011,0.098-0.023,0.15c0.034-0.099,0.051-0.156,0.051-0.116
	c0,0.123,0.04,0.898-0.038,1.051c-0.078,0.154-0.183,0.307-0.312,0.459c-0.104,0.123-0.221,0.246-0.352,0.368
	c-0.13,0.123-0.26,0.23-0.39,0.322c-0.027,0.031-0.059,0.062-0.098,0.092c-0.039,0.032-0.084,0.062-0.136,0.093l-4.799,3.493
	c-0.287,0.246-0.566,0.444-0.839,0.597c-0.273,0.154-0.54,0.276-0.799,0.368c-0.521,0.215-1.041,0.368-1.561,0.459
	c-0.521,0.092-1.119,0.153-1.795,0.184h-0.468c-0.432,0-0.889-0.047-1.357-0.116c-0.484-0.037-0.98-0.098-1.506-0.213
	c-0.767-0.168-1.54-0.451-2.321-0.85c-0.598-0.276-1.19-0.621-1.775-1.034c-0.585-0.414-1.151-0.881-1.697-1.402l-4.565-4.413
	c-1.457-1.348-2.523-2.843-3.2-4.482c-0.677-1.639-1.015-3.532-1.015-5.677v-0.736c0-0.245,0.013-0.49,0.04-0.735
	c0.025-0.368,0.059-0.751,0.097-1.149c0.039-0.398,0.097-0.782,0.176-1.149c0.208-1.44,0.5-2.788,0.878-4.046
	c0.028-0.095,0.057-0.172,0.086-0.262c0.042-0.152,0.075-0.315,0.12-0.465c0.377-1.256,0.761-2.129,1.151-2.62
	c0.026-0.03,0.052-0.053,0.078-0.069c0.025-0.015,0.052-0.038,0.078-0.069v-0.043c0.179-0.099,0.573-0.258,1.21-0.486
	c0.728-0.26,1.508-0.574,2.34-0.942c0.312-0.122,0.625-0.26,0.937-0.414c0.312-0.153,0.61-0.306,0.897-0.459
	c0.285-0.184,0.572-0.383,0.858-0.598c0.285-0.214,0.559-0.429,0.819-0.643c0.52-0.429,1.008-0.835,1.463-1.218
	c0.455-0.383,0.865-0.59,1.229-0.621c0.104-0.03,0.215-0.046,0.332-0.046h0.371c0.338,0,0.709,0.016,1.112,0.046
	c0.403,0.031,0.826,0.077,1.268,0.138c0.104,0.031,0.208,0.053,0.312,0.069c0.104,0.016,0.208,0.023,0.312,0.023l8.896,1.057
	c0.104,0.032,0.429,0.093,0.975,0.184c0.546,0.092,1.145,0.246,1.795,0.459c0.677,0.215,1.301,0.49,1.873,0.828
	c0.572,0.337,1.344,1.166,1.37,1.687v0.046c0,0.054-0.009,0.108-0.017,0.162c0.013,0.065,0.034,0.127,0.037,0.195V63.272z
	 M319.738,57.608l0.285-7.999l0.002-1.9l13.255,0.529v10.59c-0.533-0.106-1.055-0.158-1.571-0.158l-0.144,0.002
	c-1.887,0.06-4.031,0.518-6.558,1.398c-1.714,0.599-3.48,1.318-5.269,2.147V57.608z M344.8,73.972v33.333l-7.681,3.377v-0.065
	l-0.503,0.221V79.192c-1.134-2.166-2.347-4.042-3.654-5.582c-0.651-0.811-1.309-1.508-1.978-2.094
	c-0.669-0.586-1.27-1.058-1.805-1.419l-3.612-2.431c-0.077,0-0.2-0.034-0.372-0.102c-0.172-0.068-0.372-0.145-0.602-0.236
	c-0.268-0.09-0.565-0.179-0.889-0.27c-0.325-0.09-0.641-0.158-0.946-0.204h-0.631c-0.077,0-0.153,0.023-0.229,0.067
	c-0.077,0-0.153,0.012-0.229,0.034c-0.077,0.023-0.153,0.034-0.229,0.034c-1.758,0.45-3.354,1.565-4.787,3.343
	c-1.026,1.274-1.738,2.624-2.147,4.048v45.87l-7.681,3.377V32.62l-8.645-0.345l-0.016,0.013l-2.419-0.097l7.099-5.47h11.982v1.405
	h-0.032v20.636l-0.229,7.295c-0.039,0.135-0.058,0.281-0.058,0.438v10.6l2.565-1.309c0.267-0.09,0.536-0.204,0.803-0.339
	c0.267-0.135,0.535-0.247,0.803-0.338c2.178-1.08,4.299-1.981,6.363-2.701c2.064-0.719,3.802-1.103,5.217-1.149h0.057
	c0.841,0,1.921,0.395,3.239,1.182c1.004,0.601,2.026,1.367,3.064,2.294V43.174l0.503,0.02v-0.047l-8.695-0.347l-0.027,0.021
	l-2.419-0.097l7.099-5.47h11.982v0.826h0.029v28.157l-0.229,7.295C344.819,73.669,344.8,73.815,344.8,73.972z M391.063,90.328
	c-0.312,0.429-0.651,0.82-1.014,1.172c-0.365,0.353-0.741,0.682-1.131,0.989c-0.546,0.429-1.073,0.789-1.581,1.08
	c-0.507,0.291-0.916,0.529-1.228,0.713c-0.287,0.154-0.683,0.261-1.19,0.322c-0.507,0.061-1.06,0.092-1.658,0.092h-0.429
	c-0.442,0-0.884-0.016-1.327-0.046c-0.442-0.031-0.833-0.061-1.171-0.092c-0.227-0.022-0.417-0.044-0.589-0.067
	c-0.035-0.003-0.075-0.006-0.109-0.009c-0.312-0.03-0.572-0.061-0.78-0.092c-0.208-0.03-0.326-0.046-0.351-0.046l-5.199-11.519
	l-13.689-0.219l-4.292,8.136c-0.156,0.338-0.319,0.652-0.487,0.942c-0.17,0.292-0.345,0.59-0.527,0.897
	c-0.365,0.582-0.767,1.164-1.209,1.747c-0.442,0.582-0.936,1.18-1.483,1.793c-0.365,0.398-0.709,0.766-1.034,1.103
	c-0.326,0.337-0.644,0.658-0.956,0.965c-0.364,0.368-0.741,0.713-1.132,1.035c-0.39,0.322-0.819,0.636-1.288,0.942
	c-0.208,0.122-0.429,0.26-0.663,0.414c-0.189,0.123-0.392,0.247-0.598,0.371c-0.062,0.061-0.117,0.119-0.182,0.181v-0.092h0.039
	c0.05-0.03,0.094-0.059,0.143-0.089c0.109-0.107,0.218-0.214,0.32-0.317c-0.006,0.004-0.012,0.009-0.018,0.013
	c-0.176,0.123-0.366,0.247-0.558,0.371c-0.058,0.061-0.11,0.119-0.17,0.181v-0.092h0.036c0.047-0.03,0.088-0.059,0.134-0.089
	c0.315-0.33,0.603-0.648,0.849-0.945c0.001-0.001,0.002-0.003,0.003-0.004c-0.011,0.008-0.022,0.015-0.033,0.023
	c-0.208,0.122-0.429,0.26-0.663,0.414c-0.189,0.123-0.392,0.247-0.598,0.371c-0.062,0.061-0.117,0.119-0.182,0.181v-0.092h0.039
	c0.05-0.03,0.094-0.059,0.143-0.089c0.338-0.33,0.646-0.648,0.91-0.945c0.312-0.353,0.611-0.713,0.897-1.08
	c0.208-0.246,0.416-0.499,0.624-0.758c0.208-0.261,0.404-0.514,0.585-0.758c0.287-0.398,0.559-0.804,0.82-1.218
	c0.26-0.414,0.546-0.867,0.858-1.357c0.26-0.368,0.481-0.713,0.663-1.034s0.352-0.636,0.508-0.942
	c0.025-0.061,0.052-0.122,0.078-0.184c0.026-0.061,0.065-0.122,0.117-0.184c0.208-0.429,0.448-0.927,0.722-1.494
	c0.213-0.443,0.48-0.997,0.796-1.655c0.064-0.142,0.126-0.281,0.194-0.432l2.695-5.838l0.213-0.018l0.024-0.049h-0.905l-0.022,0.01
	h-2.458l4.681-2.744l7.629-15.446c-0.012-0.001-0.024-0.001-0.036-0.001c-0.287-0.015-0.572-0.038-0.858-0.069h-1.677
	c-0.365,0-0.696,0.016-0.995,0.046c-0.299,0.031-0.591,0.062-0.878,0.093c-0.26,0-0.527,0.023-0.8,0.069
	c-0.014,0.002-0.031,0.004-0.045,0.006c-0.007,0.006-0.023,0.02-0.028,0.023c-0.202,0.021-0.405,0.043-0.6,0.063
	c-0.027,0-0.057,0.007-0.084,0.007c-0.042,0.004-0.078,0.012-0.121,0.016c0.002-0.002,0.003-0.004,0.005-0.006
	c-0.198,0.008-0.395,0.017-0.6,0.051c-0.273,0.046-0.565,0.085-0.878,0.115c0.129-0.153,1.343-1.314,1.447-1.437
	c0.104-0.122,0.208-0.245,0.312-0.368c0.13-0.153,0.266-0.299,0.409-0.437c0.143-0.138,0.293-0.267,0.449-0.39
	c0.129-0.093,0.266-0.191,0.409-0.299c0.142-0.107,0.305-0.222,0.488-0.345c0.26-0.184,0.494-0.345,0.702-0.483
	c0.208-0.138,0.416-0.267,0.624-0.391c0.364-0.214,0.761-0.368,1.19-0.459c0.429-0.092,1.047-0.138,1.853-0.138l5.306,0.046
	l0.623,1.404l-0.006,0l2.452,5.526l9.911,22.734h3.252c0.234,0.032,0.442,0.047,0.624,0.047h0.546
	c0.156-0.03,0.318-0.053,0.488-0.069c0.168-0.015,1.631-0.249,1.814-0.28c0.156-0.03,0.298-0.061,0.429-0.092
	c0.129-0.03,0.273-0.076,0.429-0.138c0.13-0.03,0.26-0.069,0.39-0.115c0.13-0.046,0.273-0.099,0.429-0.161
	c-0.279,0.384-0.583,0.733-0.904,1.055C390.993,90.355,391.024,90.344,391.063,90.328z M384.724,84.598
	c0.866-0.025,1.722-0.049,2.564-0.074c0.468,0.382,0.942,0.759,1.436,1.114l0.082,0.058c0.533,0.366,1.065,0.714,1.592,1.044
	l-1.69,0.669c-0.083,0.033-0.161,0.062-0.233,0.088l-0.273,0.064l-0.231,0.091c-0.026,0.005-0.053,0.011-0.08,0.016
	c-0.046,0.008-0.092,0.013-0.144,0.018c-0.138,0.013-0.273,0.028-0.405,0.047l-0.533-0.043h-0.734L384.724,84.598z M415.64,53.843
	c0,0.069-0.008,0.131-0.015,0.195v0.266c0,0.307-0.046,0.575-0.136,0.804c-0.091,0.23-0.215,0.468-0.371,0.713l-2.692,3.816
	c-0.052,0.123-0.104,0.222-0.156,0.298c-0.052,0.077-0.117,0.161-0.196,0.253c-0.026,0.062-0.059,0.123-0.097,0.184
	c-0.039,0.062-0.072,0.123-0.097,0.184c-0.156,0.215-0.306,0.384-0.449,0.506c-0.143,0.123-0.267,0.138-0.371,0.046
	c-0.008-0.009-0.007-0.038-0.009-0.06c-0.117,0.077-0.221,0.082-0.309,0.003c-0.009-0.01-0.008-0.039-0.01-0.064
	c-0.143,0.122-0.267,0.137-0.37,0.045c-0.026-0.03-0.019-0.13,0.02-0.299c0.039-0.168,0.097-0.375,0.176-0.621
	c0.025-0.092,0.052-0.206,0.078-0.345c0.026-0.138,0.052-0.267,0.078-0.39c0-0.092,0.006-0.176,0.019-0.253
	c0.013-0.076,0.02-0.161,0.02-0.253v-0.276c-0.13-0.735-0.585-1.356-1.365-1.862c-0.781-0.505-1.639-0.896-2.575-1.172
	c-0.286-0.092-0.579-0.168-0.878-0.23c-0.299-0.061-0.592-0.107-0.878-0.138l-6.135-0.818c-0.224-0.018-0.447-0.037-0.678-0.049
	c-0.326-0.015-0.657-0.023-0.995-0.023h-0.156c-1.092,0-2.126,0.138-3.102,0.414c-0.975,0.276-1.619,0.706-1.931,1.287
	c-0.936,1.809-1.613,3.502-2.029,5.08c-0.416,1.579-0.624,3.042-0.624,4.391c0,2.141,0.44,4.027,1.317,5.661
	c0.178,0.274,0.363,0.543,0.571,0.799c1.586,1.961,3.525,3.57,5.813,4.827l4.565,2.437c0.39,0.246,0.767,0.444,1.132,0.597
	c0.364,0.154,0.728,0.291,1.092,0.414c0.338,0.093,0.689,0.161,1.053,0.207c0.365,0.046,0.741,0.069,1.132,0.069h0.234l0.415,0.008
	c0.078,0,0.213-0.029,0.291-0.029c0.676-0.061,1.238-0.201,1.771-0.37c0.533-0.168,1.047-0.391,1.541-0.667
	c0.364-0.214,0.734-0.437,1.112-0.667c0.377-0.23,0.773-0.483,1.19-0.758l1.232-0.86l-0.129,1.166
	c0.014-0.009-0.064,0.68-0.064,0.68l-3.472,2.575c-1.509,1.165-2.979,2-4.409,2.505c-1.431,0.505-2.836,0.758-4.214,0.758
	c-0.54,0-1.08-0.044-1.62-0.112c-0.369-0.027-0.738-0.066-1.106-0.125c-0.677-0.107-1.353-0.283-2.029-0.528
	c-0.911-0.307-1.814-0.713-2.712-1.219c-0.897-0.505-1.814-1.08-2.751-1.723c-2.341-1.686-4.318-3.693-5.93-6.023
	c-1.613-2.328-2.419-4.857-2.419-7.585v-0.689c0-0.092,0.006-0.191,0.02-0.299c0.013-0.107,0.02-0.222,0.02-0.345
	c0.14-1.565,0.428-3.079,0.85-4.546c0.105-0.416,0.222-0.829,0.349-1.238c1.329-4.255,3.113-7.169,7.282-9.102
	c2.682-1.243,5.899-1.656,8.811-1.656c0.65,0,1.32,0.023,2.009,0.069c0.689,0.046,1.385,0.1,2.088,0.161
	c2.549,0.276,4.909,0.72,7.081,1.333c2.171,0.613,3.87,1.599,4.078,2.273c0.026,0.031,0.039,0.053,0.039,0.069V53.843z
	 M406.715,64.549c-4.394,0.257-8.87,0.494-13.417,0.706c0.069-0.703,0.205-1.46,0.419-2.271c0.263-1,0.679-2.099,1.221-3.244
	c0.457-0.095,0.945-0.142,1.457-0.142h0.156c0.267,0,0.529,0.007,0.777,0.018c0.226,0.011,0.448,0.026,0.665,0.046l6.468,0.862
	l0.112,0.014c0.15,0.016,0.303,0.041,0.448,0.071c0.146,0.03,0.284,0.066,0.412,0.107l0.106,0.033
	c0.121,0.036,0.239,0.074,0.354,0.116C405.601,62.603,406.197,63.841,406.715,64.549z M454.055,85.6
	c0.533,0.276,1.021,0.429,1.464,0.459h0.195c0.208,0,0.422-0.015,0.644-0.046c0.221-0.03,0.448-0.076,0.683-0.138
	c0.208-0.03,0.422-0.084,0.644-0.161c0.221-0.076,0.435-0.145,0.644-0.206c0.416-0.153,0.786-0.291,1.112-0.414
	c0.325-0.122,0.578-0.184,0.76-0.184c0.078,0,0.137,0.008,0.176,0.023c0.039,0.016,0.414,0.459,0.44,0.52
	c0.004,0.015-0.001,0.026-0.004,0.039c0.055,0.055,0.096,0.154,0.113,0.203c0.014,0.04,0.015,0.095,0.041,0.156
	c0.052,0.184-0.215,0.43-0.8,0.736c-0.585,0.307-1.229,0.674-1.931,1.103c-0.26,0.123-0.508,0.261-0.741,0.414
	c-0.234,0.154-0.456,0.307-0.664,0.459c-0.365,0.276-0.709,0.529-1.034,0.758c-0.326,0.23-0.644,0.437-0.956,0.621
	c-0.416,0.246-0.846,0.437-1.288,0.575c-0.443,0.138-0.924,0.207-1.444,0.207h-0.507c-0.16-0.014-0.316-0.048-0.474-0.076h-0.224
	c-1.067-0.092-2.075-0.49-3.024-1.195c-0.95-0.705-1.88-1.578-2.79-2.62c-0.442-0.49-0.884-1.003-1.326-1.54
	c-0.443-0.536-0.898-1.081-1.366-1.632c-0.026-0.03-0.059-0.069-0.097-0.115c-0.039-0.046-0.085-0.099-0.136-0.16l-8.857-10.389
	c-0.027,0-0.078-0.038-0.156-0.115c-0.078-0.076-0.17-0.145-0.273-0.207c-0.052-0.061-0.097-0.107-0.137-0.138
	c-0.014-0.011-0.034-0.023-0.05-0.034c-0.004,0.007-0.009,0.01-0.013,0.018c-0.027,0.031-0.039,0.077-0.039,0.138v0.506
	l0.116,15.262l-5.15,2.712l0-0.02l-0.492,0.259l-0.007-0.419l-0.198,0.104l-0.157-8.045l-0.388-23.446l-1.45,0.031
	c-0.469,0.298-0.92,0.602-1.344,0.914c-0.796,0.584-1.429,1.205-1.902,1.863c-0.076,0.106-0.152,0.212-0.229,0.318
	c-0.076,0.106-0.132,0.21-0.169,0.313c-0.42,0.793-1.574,4.768-1.724,5.579c-0.151,0.811-0.234,1.567-0.249,2.267
	c0.013,0.817,0.048,1.514,0.105,2.088c0.057,0.575,0.044,0.945-0.038,1.112c-0.015,0.021-0.026,0.037-0.034,0.048
	c-0.008,0.011-0.031,0.017-0.071,0.021c-0.19,0.055-0.363-0.138-0.521-0.568c-0.005,0.195-0.029,0.338-0.071,0.424
	c-0.015,0.021-0.026,0.037-0.034,0.048c-0.008,0.011-0.031,0.017-0.071,0.021c-0.285,0.083-0.534-0.381-0.747-1.392
	c-0.212-1.011-0.326-2.266-0.339-3.762c-0.014-0.819,0.009-1.673,0.069-2.567c0.06-0.894,0.17-1.766,0.332-2.618
	c0.108-0.635,0.26-1.223,0.432-1.787c0.12-0.49,0.254-0.963,0.417-1.404c0.234-0.635,0.521-1.183,0.84-1.675l-0.02,0l0.036-0.026
	c0.053-0.081,0.099-0.176,0.155-0.254c0.016-0.022,0.031-0.043,0.046-0.064c0.015-0.021,0.031-0.043,0.046-0.063
	c0.483-0.619,1.06-1.2,1.733-1.744c0.673-0.544,1.421-1.049,2.245-1.516c1.365-0.75,2.856-1.385,4.471-1.906
	c1.614-0.521,3.85-1.129,5.323-1.348l-0.298,1.576c-0.001,0-0.002,0-0.002,0l-0.777,4.103c-0.014,0.004-0.027,0.003-0.041,0.007
	l-0.033,11.221c0.074-0.041,0.153-0.084,0.219-0.123c0.26-0.153,0.742-0.377,1.002-0.531c0.052-0.03,0.11-0.061,0.176-0.092
	c0.064-0.03,0.123-0.076,0.175-0.138c0.416-0.246,0.865-0.575,1.346-0.989c0.481-0.414,1.137-1.064,1.97-1.953
	c0.337-0.368,0.663-0.736,0.975-1.103c0.312-0.368,0.611-0.736,0.897-1.103c0.156-0.245,0.325-0.483,0.508-0.713
	c0.181-0.23,0.351-0.452,0.507-0.667l4.136-4.505c0.52-0.398,1.157-0.735,1.912-1.012c0.754-0.276,2.823-0.614,3.604-0.768
	c0.26-0.061,0.52-0.107,0.78-0.138c0.26-0.03,0.507-0.061,0.741-0.092c-0.317,0.327-0.604,0.636-0.876,0.936
	c0.021-0.003,0.046-0.005,0.067-0.008c-0.416,0.429-0.794,0.835-1.132,1.218c-0.338,0.383-0.677,0.758-1.014,1.126
	c-0.052,0.062-0.104,0.115-0.156,0.161c-0.052,0.046-0.104,0.1-0.156,0.161c-0.338,0.368-0.69,0.735-1.053,1.103
	c-0.365,0.368-0.767,0.767-1.209,1.195c-0.677,0.675-1.307,1.287-1.892,1.839c-0.585,0.552-1.164,1.088-1.737,1.61
	c-0.182,0.154-0.365,0.314-0.546,0.482c-0.183,0.169-0.377,0.33-0.585,0.483c-0.546,0.491-1.119,0.981-1.717,1.471
	c-0.555,0.456-1.16,0.94-1.805,1.447l10.169,11.909c0.286,0.368,0.644,0.781,1.073,1.241c0.429,0.459,0.891,0.919,1.385,1.379
	c0.364,0.337,0.728,0.674,1.092,1.011c0.364,0.338,0.741,0.644,1.132,0.92C452.982,84.987,453.522,85.325,454.055,85.6z
	 M511.02,50.627c-1.101,3.279-3.992,9.721-3.992,9.721l-1.021-1.391c0.501-1.201,2.527-5.795,3.394-7.757
	C509.956,51.01,510.5,50.819,511.02,50.627z M513.587,55.97l-1.249,2.82l-0.942-1.158c0.532-1.158,2.874-5.503,2.874-5.503
	s1.552,5.029,0.158,9.255c-0.914,2.772-2.982,6.486-2.982,6.486l-0.677-1.675c0,0,1.544-3.057,2.576-5.406
	C514.377,58.439,513.587,55.97,513.587,55.97z M513.047,60.886l-1.109,2.257c0,0-1.577-3.177-3.379-5.104l0.89-1.927
	C509.449,56.112,512.273,59.4,513.047,60.886z M505.764,72.564c0,0-1.826-3.826-2.626-4.832l1.048-1.461c0,0,2.149,3.91,2.533,5.207
	L505.764,72.564z M509.143,68.878l0.677,1.675c0,0-3.296,4.554-4.832,6.227l-0.505-1.817
	C504.483,74.963,508.325,70.125,509.143,68.878z M502.058,68.773l-0.802-1.721c0.632-0.94,3.642-5.839,3.642-5.839l1.068,1.203
	C504.694,64.531,502.058,68.773,502.058,68.773z M502.957,71.755l-1.564,1.888c-0.804-2.392-2.565-5.627-2.565-5.627l1.188-2.024
	C500.674,66.85,502.957,71.755,502.957,71.755z M504.139,57.669c1.305,1.348,4.178,5.188,4.178,5.188l-0.797,1.552
	c-0.863-1.904-4.132-5.375-4.132-5.375L504.139,57.669z M501.638,61.672l-0.896-1.345c0,0,0.799-2.714,2.731-6.577
	c0,0,1.424,1.133,1.57,1.384L501.638,61.672z M506.432,69.331l-0.77-1.3c0.72-1.063,4.14-7.294,4.14-7.294l0.896,1.345
	C509.315,64.916,506.432,69.331,506.432,69.331z M507.223,51.911l-0.656,0.603l-0.366-0.306L507.223,51.911z M505.51,52.409
	c1.051,0.985,2.165,2.04,2.165,2.04c-0.192,0.411-0.718,1.785-0.718,1.785c-1.669-1.759-2.857-2.534-3.859-3.124L505.51,52.409z
	 M500.916,53.722c0.566,0.651,1.17,1.506,1.17,1.506l-0.624,1.41c-0.369-0.635-1.355-1.747-2.058-2.507
	C499.879,54.003,500.382,53.867,500.916,53.722z M498.502,54.374c0.891,1.106,2.346,3.336,2.345,3.333l-0.521,1.368
	c-0.587-1.117-2.259-3.175-3.224-4.326C497.53,54.636,497.995,54.511,498.502,54.374z M496.044,55.032
	c0.022-0.006,0.043-0.011,0.065-0.017c1.141,1.395,6.521,9.263,6.521,9.263l-0.797,1.552l-4.243-6.029
	c-0.05,1.939,0.791,3.965,0.791,3.965l-0.922,1.507C495.133,59.577,495.915,55.593,496.044,55.032z M491.945,78.976l-1.254-2.397
	c0,0,4.158-7.097,0.204-17.791c0.136-1.011,2.736-3.12,2.736-3.12s0.374-0.097,1.118-0.293c-0.937,5.123,1.772,10.376,1.772,10.376
	c-0.698,1.258-1.749,4.537-2.136,6.383c-0.324,1.548-1.262,5.534-1.556,6.782C492.467,78.941,492.164,78.962,491.945,78.976z
	 M494.253,77.606c-0.048-0.216,0.328-7.023,4.99-14.551l1.1,1.624c0,0-3.144,3.598-3.56,7.708l2.331-2.224l0.645,1.255
	C499.759,71.418,494.301,77.822,494.253,77.606z M494.567,78.806c0.628-0.727,4.58-5.306,4.725-5.512l0.613,0.834l-3.636,4.579
	C495.674,78.74,495.098,78.773,494.567,78.806z M497.843,78.626l6.366-8.055l0.77,1.3c0,0-4.916,5.658-5.553,6.376
	c0,0,1.619-0.141,2.506-0.73l0.2,0.989C500.946,78.5,499.393,78.553,497.843,78.626z M502.764,78.516
	c-0.244-0.795-0.551-1.778-0.834-2.635c0.109-0.225,2.08-2.315,2.08-2.315s0.855,3.61,0.823,4.385l1.725,0.214
	c0,0-0.218-1.96-0.239-2.335l1.298-1.371c0,0,0.347,1.583,0.441,4.237L502.764,78.516z M510.024,78.78
	c-0.278-0.012-0.559-0.025-0.84-0.037c0.015-2.048-0.19-5.421-0.19-5.421l0.642-0.381C510.116,75.064,510.097,77.399,510.024,78.78z
	 M508.81,66.919l1.015-1.882c0,0,1.826,3.768,2.489,7.031c0,0,0.723-1.291,0.648-5.898l1.281-2.399c0,0,0.741,5.67-2.813,13.497
	C511.43,77.267,511.362,72.467,508.81,66.919z M515.827,81.364c-0.012-0.001-0.03-0.002-0.043-0.002
	c0.132-0.29,0.31-0.737,0.547-1.421C516.06,80.785,515.907,81.183,515.827,81.364z M516.67,67.403
	c-0.475,4.068-2.251,9.656-3.186,11.54c-0.367-0.018-0.78-0.038-1.227-0.06c-0.041-0.073-0.064-0.123-0.064-0.123
	c3.705-9.727,2.66-15.792,2.66-15.792s0.739,0.119,1.056-5.342c0.318-5.461-1.754-7.787-1.754-7.787
	c-0.686,1.455-2.982,6.486-2.982,6.486l-0.864-0.925c0.515-1.234,1.449-3.944,1.884-5.226c1.375-0.55,2.55-1.104,3.402-1.644
	C517.568,53.401,517.391,61.237,516.67,67.403z M172.781,80.025l0.43-0.7l10.355,0.038l-4.761-10.653L172.781,80.025z
	 M195.802,62.033c0.065-0.061,0.123-0.107,0.176-0.138c0.007-0.008,0.02-0.016,0.028-0.024l-0.262,0.205L195.802,62.033z
	 M65.974,76.805c0.045-0.011,0.089-0.021,0.133-0.032c0.028-0.21,0.056-0.419,0.084-0.628c-0.231-0.046-0.467-0.095-0.708-0.147
	c-0.802-0.473-1.353-1.795-0.905-2.998c-0.06-0.091-0.121-0.182-0.183-0.273c-0.061-0.11-0.121-0.22-0.183-0.331
	c-0.221,0.383-0.34,1.037-0.245,1.558c-0.088,0.295,0.032,0.648,0.108,0.898C64.513,76.286,65.077,76.36,65.974,76.805z
	 M38.836,104.766l-0.794-0.97c-0.622,0.814-0.778,1.307-2.123,3.298c-1.43,2.116-1.635,1.612-1.655,0.936
	c-0.02-0.675,0.827-3.039,0.827-3.039l-0.576-1.003c-2.152,4.336-1.127,8.181-1.127,8.181
	C36.773,108.972,38.836,104.766,38.836,104.766z M27.162,155.606l-0.667,0.643c0,0,1.202,1.134,2.494-0.268
	c1.108-1.202,1.102-1.988,1.102-1.988l-0.543,0.018c0,0-0.383,1.709-1.524,1.846C27.369,155.937,27.162,155.606,27.162,155.606z
	 M40.815,33.248l-0.696-0.82c-0.483,0.649-0.593,1.045-1.598,2.586c-1.031,1.581-1.207,1.177-1.248,0.65
	c-0.041-0.527,0.521-2.352,0.521-2.352l-0.484-0.81c-1.446,3.286-0.537,6.285-0.537,6.285
	C39.268,36.554,40.815,33.248,40.815,33.248z M32.973,150.315c2.955,3.874,6.594,7.591,6.594,7.591
	c1.88,0.068,3.107,0.04,3.107,0.04c-4.015-5.645-5.455-10.486-5.455-10.486c5.197,1.55,12.046,2.325,12.046,2.325
	c-1.306-0.32-7.893-6.567-10.412-9.177c-2.563-2.655-9.228-4.508-9.228-4.508c-1.093,2.423-2.008,6.649-1.923,6.782
	C29.38,145.506,30.963,147.68,32.973,150.315z M28.512,151.484c0.66,0.201,1.002,1.401,1.002,1.401l0.54-0.038
	c0,0-0.147-1.682-1.128-1.978c-0.868-0.262-1.749,0.271-2.919,1.186l0.169,0.692C26.175,152.747,27.74,151.249,28.512,151.484z
	 M29.034,154.616c-1.038-1.309-1.04-2.874-1.04-2.874l-0.731,0.373c0.02,1.794,1.308,3.121,1.308,3.121L29.034,154.616z
	 M37.141,130.475c2.746,2.213,7.971,5.611,12.691,6.233c4.72,0.622,6.682,1.064,8.128,0.052c1.446-1.012,8.836-6.421,8.836-6.421
	c-0.326-1.887-3.173-4.928-3.173-4.928s-4.927,5.374-7.651,6.705c-2.723,1.331-6.209,1.789-9.817,0.369
	c-3.608-1.42-8.076-3.621-9.612-5.4c-1.714-1.986-1.569-2.945-1.569-2.945s0.511-1.506,1.271-2.12c0,0-0.31-0.648-1.143-1.485
	c0,0-2.184,0.823-2.03,3.297C33.227,126.304,34.395,128.262,37.141,130.475z M40.352,55.757l-0.646-0.8
	c-0.476,0.609-0.59,0.985-1.586,2.435c-1.021,1.488-1.18,1.097-1.207,0.593c-0.027-0.505,0.551-2.236,0.551-2.236l-0.444-0.786
	c-1.457,3.107-0.655,5.994-0.655,5.994C38.799,58.882,40.352,55.757,40.352,55.757z M86.439,157.419c0,0-2.807,1.097-4.729,1.446
	c0,0-2.206,1.341-2.962,1.565c0,0-0.839,1.808-1.26,1.96c0,0,4.667-1.281,6.687-2.044C84.177,160.346,84.544,159.356,86.439,157.419
	z M36.842,105.071c0,0-2.152-3.308-1.901-5.809c0.15-1.494,0.704-0.546,1.065-0.166c0.359,0.378,0.631,1.27,0.631,1.27l0.834-0.728
	c0,0-1.466-3.791-2.485-4.734c0,0-2.772,4.811,1.175,11.031L36.842,105.071z M38.03,77.071c0,0-1.555-2.44-1.402-4.212
	c0.092-1.071,0.494-0.385,0.757-0.107c0.262,0.278,0.466,0.93,0.466,0.93l0.608-0.515c0,0-1.099-2.778-1.837-3.449
	c0,0-1.854,3.424,0.925,7.927L38.03,77.071z M37.472,95.592c1.711,1.552,4.97,4.033,7.911,4.825c3.016,0.812,4.293,1.268,5.24,0.78
	c0.962-0.496,6.113-3.304,6.113-3.304c-0.201-1.281-2.186-3.55-2.186-3.55s-3.438,3.142-5.255,3.761
	c-1.773,0.604-4,0.59-6.292-0.586c-2.26-1.159-5.031-2.844-6.014-4.049c-1.097-1.345-1.051-1.935-1.051-1.935
	s0.243-0.916,0.674-1.261c0,0-0.213-0.431-0.748-1.012c0,0-1.265,0.4-1.063,1.963C35,92.767,35.767,94.047,37.472,95.592z
	 M39.503,76.963l-0.599-0.746c-0.455,0.557-0.567,0.901-1.521,2.228c-0.978,1.36-1.124,0.998-1.144,0.532
	c-0.02-0.466,0.545-2.057,0.545-2.057l-0.409-0.731c-1.407,2.849-0.686,5.524-0.686,5.524
	C38.005,79.827,39.503,76.963,39.503,76.963z M34.753,163.332c0,0,0.438,1.087,0.869,1.817c0.47,0.237,6.417,0.244,7.817,0.045
	c0,0,0.008-1.215,0.263-1.924C43.7,163.27,37.786,163.212,34.753,163.332z M60.434,170.648c-2.084-1.599,2.965-3.809,7.096-4.613
	l-0.033-0.85c0,0-2.448,0.061-4.847,1.339c-2.412,1.284-2.445,1.527-4.002,1.869c-1.559,0.343-10.149,3.066-10.34-3.22
	c-0.169-5.54,14.651-8.184,14.651-8.184l0.157-2.261c-2.377,0.377-4.184,0.981-8.742,1.138c-5.11,0.177-10.463-0.254-10.463-0.254
	l1.132,1.798c0,0,1.229,0.007,2.375,0.092c1.146,0.084,2.408,0.487,2.408,0.487c-4.472,0.978-5.063,3.754-5.388,7.465
	c-0.33,3.762,2.313,12.413,18.41,7.689c4.214-1.237,7.883-4.597,7.883-4.597l-3.068,0.916
	C67.663,169.46,62.53,172.256,60.434,170.648z M34.857,165.194c-0.868-1.884-2.231-5.036-6.371-3.089c0,0,2.244,1.344,3.631,3.171
	c1.393,1.836,2.029,3.354,3.341,3.932c1.232,0.379,2.675,0.546,3.237,0.033C38.694,169.24,35.454,166.49,34.857,165.194z
	 M36.568,165.988c0.496,0.586,2.952,2.613,2.952,2.613c2.093,0.298,4.316,0.044,4.316,0.044c-0.118-0.728-0.359-2.622-0.359-2.622
	C40.588,166.157,36.568,165.988,36.568,165.988z M68.88,167.553c-2.79,1.216-5.16,0.187-5.16,0.187l-1.279,0.476
	c0,0,2.251,2.082,6.733,0.213c4.449-1.854,5.473-4.123,5.473-4.123L72.629,165C72.629,165,71.657,166.342,68.88,167.553z
	 M67.844,167.476c1.115-0.181,2.019-0.606,2.035-0.701c0.195-1.148-0.379-2.849-0.379-2.849l-1.768,0.713
	C67.983,165.969,67.771,167.488,67.844,167.476z M77.528,160.892c-0.308,0.174-0.992,0.482-0.992,0.482
	c-2.701,2.281-5.749,2.646-5.749,2.646l0.038,0.846c0,0,2.668-0.4,4.293-1.367C76.736,162.536,77.836,160.719,77.528,160.892z
	 M27.754,154.634l-0.4-0.871c-0.576,0.428-0.769,0.734-2.016,1.786c-1.279,1.078-1.332,0.691-1.238,0.234
	c0.094-0.457,1.028-1.86,1.028-1.86l-0.22-0.809c-2.056,2.417-2.007,5.188-2.007,5.188
	C25.606,157.042,27.754,154.634,27.754,154.634z M39.184,33.432c0,0-1.825-2.698-1.727-4.711c0.059-1.216,0.533-0.457,0.836-0.153
	c0.302,0.304,0.555,1.033,0.555,1.033l0.654-0.609c0,0-1.333-3.1-2.179-3.829c0,0-1.919,3.955,1.349,8.938L39.184,33.432z
	 M27.743,169.014c3.261,1.705,5.499-0.554,5.499-0.554c-0.631-1.364-2.474-3.31-2.474-3.31
	C30.34,168.355,27.743,169.014,27.743,169.014z M26.299,154.376c0,0-0.915-2.749-0.336-4.429c0.35-1.016,0.573-0.252,0.76,0.082
	s0.226,1.016,0.226,1.016l0.715-0.35c0,0-0.391-2.964-0.944-3.796c0,0-2.629,2.864-1.028,7.914L26.299,154.376z M33.377,155.364
	c0,0-0.914-2.949-4.748-2.096l0.294,0.682c0,0,1.366-0.644,2.456,0.159c1.09,0.803,1.215,1.194-0.443,1.37
	c-0.351,0.037-0.974-0.257-0.974-0.257l-0.503,0.663C29.46,155.887,31.698,157.258,33.377,155.364z M27.99,162.838
	c0,0,0.112-0.024-7.479-1.383c0,0-0.966,1.49-1.536,2.73c0,0,3.53,0.35,10.635,1.337C29.61,165.523,30.278,163.765,27.99,162.838z
	 M29.269,166.139c-8.454-0.773-10.76-1.302-10.76-1.302c-0.683,1.082-1.429,2.846-1.429,2.846
	c5.848,0.545,10.189,0.645,10.189,0.645C28.726,167.771,29.269,166.139,29.269,166.139z"/>
</svg>
